<?xml version="1.0" encoding="utf-8"?>
<!-- Generator: Adobe Illustrator 22.1.0, SVG Export Plug-In . SVG Version: 6.00 Build 0)  -->
<svg version="1.1" id="Layer_1" xmlns="http://www.w3.org/2000/svg" xmlns:xlink="http://www.w3.org/1999/xlink" x="0px" y="0px"
	 viewBox="0 0 33 36" enable-background="new 0 0 33 36" xml:space="preserve">
<g>
	<g>
		<path d="M29.3,25.9C29.3,25.9,29.3,25.9,29.3,25.9l-5.9-1.2c0-0.6-0.3-1.3-0.8-1.6l-0.9-0.6c2-1.9,3.3-4.9,3.3-8.3
			c0-0.6,0-1.3-0.1-1.9h2c0.3,0,0.6-0.3,0.6-0.6s-0.3-0.6-0.6-0.6h-0.7v-0.7c0-2.3-0.8-4.5-2.2-6.3c-0.3-0.3-0.5-0.6-0.8-0.9V3.1
			c0-0.3-0.3-0.6-0.6-0.6c-0.1,0-0.2,0-0.3,0.1c-1-0.8-2.2-1.3-3.4-1.7C18.7,0.4,18.3,0,17.7,0h-2.5c-0.6,0-1,0.4-1.2,0.9
			c-1.2,0.3-2.4,0.9-3.4,1.7c-0.1-0.1-0.2-0.1-0.3-0.1c-0.3,0-0.6,0.3-0.6,0.6v0.3C9.5,3.6,9.2,3.9,9,4.2c-1.4,1.8-2.2,4-2.2,6.3
			v0.7H6.1c-0.3,0-0.6,0.3-0.6,0.6s0.3,0.6,0.6,0.6h2C8,13,8,13.6,8,14.3c0,3.3,1.3,6.3,3.3,8.3l-0.9,0.6c-0.5,0.4-0.8,1-0.8,1.6
			l-5.8,1.2c0,0,0,0,0,0C1.5,26.5,0,28.5,0,30.7v3.4c0,1,0.8,1.8,1.8,1.8h29.4c1,0,1.8-0.8,1.8-1.8v-3.4
			C33,28.5,31.5,26.5,29.3,25.9z M22,24.1c0.3,0.2,0.4,0.5,0.2,0.8c-1.2,2.5-1.9,3.8-2.2,4.5c-1-0.9-1.9-1.4-2.5-1.7l4-4L22,24.1z
			 M18.2,29.5c-0.5,0.2-1.1,0.3-1.7,0.3c-0.6,0-1.2-0.1-1.7-0.3c0.8-0.5,1.4-0.8,1.7-0.9C16.8,28.7,17.4,29,18.2,29.5z M13.6,24.2
			c0.9,0.4,1.9,0.6,2.9,0.6c1,0,2-0.2,2.9-0.6l-2.9,3L13.6,24.2z M23.2,5c1.2,1.5,1.9,3.5,1.9,5.5v0.7h-1.9V5z M18.9,2.1
			c1.2,0.3,2.2,0.9,3.1,1.7v7.3h-3.1V2.1z M15.2,1.2C15.2,1.2,15.3,1.2,15.2,1.2l2.5,0c0,0,0,0,0,0v10h-2.5V1.2z M10.9,3.8
			c0.9-0.8,2-1.4,3.1-1.7v9.1h-3.1V3.8z M7.9,11.2v-0.7c0-2,0.7-3.9,1.9-5.5v6.2H7.9z M9.1,14.3C9.1,14.3,9.1,14.3,9.1,14.3
			c0-0.7,0.1-1.3,0.2-1.9h14.5c0.1,0.6,0.2,1.3,0.2,1.9c0,0,0,0,0,0c0,0,0,0,0,0H22v-0.7c0-0.3-0.3-0.6-0.6-0.6h-3.7
			c-0.3,0-0.6,0.3-0.6,0.6v0.2c-0.2-0.1-0.4-0.1-0.7-0.1c-0.2,0-0.4,0-0.7,0.1v-0.2c0-0.3-0.3-0.6-0.6-0.6h-3.7
			c-0.3,0-0.6,0.3-0.6,0.6v0.7L9.1,14.3C9.1,14.3,9.1,14.3,9.1,14.3z M9.2,15.5H11v0c0,0.3,0.3,0.6,0.6,0.6c0.3,0,0.6-0.3,0.6-0.6
			v-1.3h0.7v0.7c0,0.3,0.3,0.6,0.6,0.6s0.6-0.3,0.6-0.6v-0.7h0.7v1.3c0,0.3,0.3,0.6,0.6,0.6c0.3,0,0.6-0.3,0.6-0.6
			c0-0.4,0.3-0.7,0.7-0.7c0.4,0,0.7,0.3,0.7,0.7c0,0.3,0.3,0.6,0.6,0.6c0.3,0,0.6-0.3,0.6-0.6v-1.3H19v0.7c0,0.3,0.3,0.6,0.6,0.6
			c0.3,0,0.6-0.3,0.6-0.6v-0.7h0.7v1.3c0,0.3,0.3,0.6,0.6,0.6s0.6-0.3,0.6-0.6v0h1.9c-0.5,4.6-3.6,8.2-7.3,8.2
			C12.7,23.6,9.6,20.1,9.2,15.5z M11,24.1l0.5-0.4l4,4c-0.6,0.3-1.5,0.8-2.5,1.7c-0.3-0.7-1-2.1-2.2-4.5
			C10.6,24.6,10.7,24.3,11,24.1z M4.9,34.8H1.8c-0.4,0-0.7-0.3-0.7-0.7v-3.4c0-1.7,1.2-3.2,2.8-3.7l1-0.2V34.8z M7.4,34.8H6v-8.2
			l1.3-0.3V34.8z M25.1,34.8H8.5v-8.7l1.4-0.3l2.3,4.7c0.1,0.2,0.2,0.4,0.5,0.5c0,0,0.1,0,0.1,0c0.1,0,0.3-0.1,0.4-0.2
			c0.2-0.2,0.4-0.4,0.6-0.5c0.8,0.5,1.7,0.7,2.7,0.7c0.9,0,1.9-0.2,2.7-0.7c0.2,0.2,0.4,0.3,0.6,0.5C19.9,31,20,31,20.2,31
			c0,0,0.1,0,0.1,0c0.3,0,0.4-0.2,0.5-0.5l2.3-4.7l2,0.4V34.8z M27.6,34.8h-1.3v-8.3l1.3,0.3V34.8z M31.9,34.2
			c0,0.4-0.3,0.7-0.7,0.7h-2.5V27l0.3,0.1c1.6,0.4,2.8,1.9,2.8,3.7V34.2z M16.5,21.1c1.1,0,2.1-0.3,2.8-0.7c0.3-0.2,0.3-0.5,0.2-0.8
			c-0.2-0.3-0.5-0.3-0.8-0.2c-0.5,0.3-1.3,0.5-2.1,0.5c-0.8,0-1.6-0.2-2.1-0.5c-0.3-0.2-0.6-0.1-0.8,0.2c-0.2,0.3-0.1,0.6,0.2,0.8
			C14.4,20.8,15.4,21.1,16.5,21.1z"/>
	</g>
</g>
</svg>
