<?xml version="1.0" encoding="utf-8"?>
<!-- Generator: Adobe Illustrator 22.1.0, SVG Export Plug-In . SVG Version: 6.00 Build 0)  -->
<svg version="1.1" id="Layer_1" xmlns="http://www.w3.org/2000/svg" xmlns:xlink="http://www.w3.org/1999/xlink" x="0px" y="0px"
	 viewBox="0 0 35.2 35.4" enable-background="new 0 0 35.2 35.4" xml:space="preserve">
<path d="M34.9,5.6c-0.5-0.5-2-2-2.5-2.5c-0.2-0.2-0.5-0.2-0.7,0c-0.2,0.2-0.2,0.5,0,0.7L32.8,5l-11.9,12l-4-4l1.5-1.5l1,1.1
	c0.2,0.2,0.5,0.2,0.7,0c0.2-0.2,0.2-0.5,0-0.7l-1-1.1L21,8.8l1,1.1c0.2,0.2,0.5,0.2,0.7,0c0.2-0.2,0.2-0.5,0-0.7l-1-1.1l1.9-1.9
	l1,1.1c0.2,0.2,0.5,0.2,0.7,0c0.2-0.2,0.2-0.5,0-0.7l-1-1.1l1.9-1.9l1,1.1c0.2,0.2,0.5,0.2,0.7,0c0.2-0.2,0.2-0.5,0-0.7l-1-1.1
	l1.8-1.8c0,0,0.1,0,0.1,0c0,0,0.1,0,0.1,0l1,1.1c0.2,0.2,0.5,0.2,0.7,0c0.2-0.2,0.2-0.5,0-0.7l-1-1.1c-0.5-0.5-1.2-0.5-1.7,0
	L16.2,12.2L9.8,5.7c0,0-0.1-0.1-0.2-0.1C9.4,5.6,4.1,3.3,3.9,3.2c-0.6-0.3-1.3,0.4-1,1c0,0,0,0,0,0c0.2,0.4,1.3,3.1,1.5,3.4l1,2.3
	c0,0.1,0.1,0.1,0.1,0.2l6.4,6.5L0.3,28.1c-0.5,0.5-0.5,1.2,0,1.7l5.3,5.3c0.5,0.5,1.2,0.5,1.7,0l11.5-11.6c0.3,0.3,9.7,9.7,10,10.1
	c0.3,0.3,0.7,0.5,1.1,0.5c0.4,0,0.8-0.2,1.1-0.5l2.1-2.1c0.6-0.6,0.6-1.6,0-2.2c-2-2-8-8.1-10-10.1L34.9,7.3
	C35.4,6.9,35.4,6.1,34.9,5.6z M5,6.5L4.1,4.4l2.1,0.9L5,6.5z M5.5,7.5l1.8-1.8l1.2,0.5c-2.1,2.1,0,0-2.5,2.5L5.5,7.5z M4.9,33
	l-3.9-3.9C1,29,1,29,1,29c0,0,0-0.1,0-0.1l1.8-1.8l1,1.1c0.2,0.2,0.5,0.2,0.7,0c0.2-0.2,0.2-0.5,0-0.7l-1-1.1l1.9-1.9l1,1.1
	c0.2,0.2,0.5,0.2,0.7,0c0.2-0.2,0.2-0.5,0-0.7l-1-1.1L8,21.9l1,1.1c0.2,0.2,0.5,0.2,0.7,0c0.2-0.2,0.2-0.5,0-0.7l-1-1.1l1.9-1.9
	l1,1.1c0.2,0.2,0.5,0.2,0.7,0c0.2-0.2,0.2-0.5,0-0.7l-1-1.1l1.3-1.3l4,4L4.9,33z M6.6,34.4c0,0-0.1,0-0.1,0c0,0,0,0,0,0
	c0,0-0.1,0-0.1,0l-0.7-0.7L17.3,22l0.8,0.8L6.6,34.4z M32.4,30c0.2,0.2,0.2,0.5,0,0.7l-2.1,2.1C30.2,32.9,30.1,33,30,33
	c-0.1,0-0.3-0.1-0.4-0.2l-1.9-1.9c0.3-0.3,2.5-2.5,2.8-2.8L32.4,30z M28.6,26.1l1.3,1.3c-0.3,0.3-2.5,2.5-2.8,2.8l-1.3-1.3
	C26,28.6,28.2,26.4,28.6,26.1z M27.8,25.4c-0.7,0.7-0.6,0.6-1.1,1.1l-6.6-6.7c-0.2-0.2-0.5-0.2-0.7,0c-0.2,0.2-0.2,0.5,0,0.7
	l6.6,6.7c-0.2,0.2-0.8,0.8-1.1,1.1C24.4,27.7,7.4,10.5,6.6,9.7l1.1-1.1l10.1,10.1c0.2,0.2,0.5,0.2,0.7,0c0.2-0.2,0.2-0.5,0-0.7
	L8.3,7.9c0.8-0.8,0.6-0.6,1.1-1.1C10.2,7.7,26.4,23.9,27.8,25.4z M34.2,6.6L22.4,18.4l-0.8-0.8l11.9-12l0.7,0.7
	C34.2,6.4,34.2,6.5,34.2,6.6z"/>
</svg>
