<?xml version="1.0" encoding="utf-8"?>
<!-- Generator: Adobe Illustrator 22.1.0, SVG Export Plug-In . SVG Version: 6.00 Build 0)  -->
<svg version="1.1" id="Layer_1" xmlns="http://www.w3.org/2000/svg" xmlns:xlink="http://www.w3.org/1999/xlink" x="0px" y="0px"
	 viewBox="0 0 34.3 34.5" enable-background="new 0 0 34.3 34.5" xml:space="preserve">
<g>
	<g>
		<path d="M34.3,24.8l-1.7-7.9c0-0.2-0.2-0.4-0.4-0.4l-4.4-1.1l-2-2V4.5c0.4-0.5,0.6-1.1,0.6-1.7c0-1.6-1.3-2.8-2.8-2.8
			c-0.9,0-1.8,0.4-2.3,1.2L4.5,2.3l0,0c-1.9,0-3.4,1.5-3.4,3.4c0,1,0.4,1.9,1.1,2.5v18.4H0.6c-0.3,0-0.6,0.3-0.6,0.6c0,0,0,0,0,0
			v6.2c0,0.3,0.3,0.6,0.6,0.6h8c0.3,0,0.6-0.3,0.6-0.6v-6.2c0-0.3-0.3-0.6-0.6-0.6H6.9V8.4l14.3-3.1v8.1l-2,2l-4.4,0.5
			c-0.2,0-0.4,0.2-0.5,0.5l-1.7,8.5c-0.1,0.2,0.1,0.5,0.3,0.6l3.4,1.7c0.3,0.1,0.6,0,0.8-0.3c0.1-0.1,0.1-0.3,0-0.5l-1-2.6l1.5-4.1
			l4.8-2.1h2l4.8,2.1l1.5,4.1l-1,2.6c-0.1,0.3,0,0.6,0.3,0.7c0.2,0.1,0.3,0,0.5,0l3.4-1.7C34.2,25.3,34.4,25,34.3,24.8z M1.1,32.8
			v-3.7l2.4,3.7H1.1z M8,32.8H5.6L8,29.1V32.8z M7.5,27.7l-3,4.6l-3-4.6H7.5z M3.4,26.6V8.9c0.7,0.3,1.5,0.3,2.3,0v17.7H3.4z
			 M4.6,7.9c-1.3,0-2.3-1-2.3-2.3c0-1.2,1-2.3,2.3-2.3c1.3,0,2.3,1,2.3,2.3C6.9,6.9,5.8,7.9,4.6,7.9z M7.7,7C8.3,5.7,8,4.2,7,3.2
			l13.7-0.9c0,0.2,0,0.3-0.1,0.5c0,0.5,0.1,0.9,0.3,1.3L7.7,7z M23.5,1.1c0.9,0,1.7,0.8,1.7,1.7c0,0.9-0.8,1.7-1.7,1.7
			c-0.9,0-1.7-0.8-1.7-1.7C21.7,1.9,22.5,1.1,23.5,1.1z M24.6,5.4V13h-2.3V5.4C23,5.7,23.9,5.7,24.6,5.4z M31.4,25.4L32,24
			c0.1-0.1,0.1-0.3,0-0.4L30.3,19c-0.1-0.1-0.2-0.3-0.3-0.3l-5.1-2.3c-0.1,0-0.2,0-0.2,0h-2.3c-0.1,0-0.2,0-0.2,0l-5.1,2.3
			c-0.1,0.1-0.3,0.2-0.3,0.3l-1.7,4.5c0,0.1,0,0.3,0,0.4l0.6,1.5l-1.7-0.8l1.5-7.7l4.2-0.5c0.1,0,0.2-0.1,0.3-0.2l2.1-2.1h3l2.1,2.1
			c0.1,0.1,0.2,0.1,0.3,0.1l4.2,1l1.5,7.1L31.4,25.4z M4.6,4.5C3.9,4.5,3.4,5,3.4,5.7c0,0.6,0.5,1.1,1.1,1.1c0.6,0,1.1-0.5,1.1-1.1
			C5.7,5,5.2,4.5,4.6,4.5z M28.8,23.8l-0.7-0.3c0-0.1,0-0.2-0.1-0.2l0.4-0.7c0.1-0.2,0.1-0.4,0-0.6c-0.2-0.4-0.5-0.7-0.7-1
			c-0.1-0.2-0.4-0.2-0.6-0.2L26.4,21c-0.1,0-0.1-0.1-0.2-0.1l-0.1-0.8c0-0.2-0.2-0.4-0.4-0.5l-1.1-0.4c-0.2-0.1-0.5,0-0.6,0.2
			L23.6,20h-0.2l-0.5-0.6c-0.2-0.2-0.4-0.2-0.6-0.2l-1.1,0.4c-0.2,0.1-0.4,0.3-0.4,0.5l-0.1,0.8c-0.1,0-0.1,0.1-0.2,0.1l-0.7-0.2
			c-0.2,0-0.4,0-0.6,0.2c-0.3,0.3-0.5,0.7-0.7,1c-0.1,0.2-0.1,0.4,0,0.6l0.4,0.7c0,0.1-0.1,0.2-0.1,0.2l-0.7,0.3
			c-0.2,0.1-0.3,0.3-0.3,0.5v1.2c0,0.2,0.1,0.4,0.3,0.5l0.7,0.3c0,0.1,0,0.2,0.1,0.2l-0.4,0.7c-0.1,0.2-0.1,0.4,0,0.6l0.7,0.9
			c0.1,0.2,0.4,0.3,0.6,0.2l0.7-0.2c0.1,0,0.1,0.1,0.2,0.1l0.1,0.8c0,0.2,0.2,0.4,0.4,0.5l1.1,0.4c0.2,0.1,0.5,0,0.6-0.2l0.5-0.6
			h0.2l0.5,0.6c0.2,0.2,0.4,0.2,0.6,0.2l1.1-0.4c0.2-0.1,0.4-0.3,0.4-0.5l0.1-0.8c0.1,0,0.1-0.1,0.2-0.1l0.7,0.2
			c0.2,0,0.4,0,0.6-0.2c0.3-0.3,0.5-0.7,0.7-1c0.1-0.2,0.1-0.4,0-0.6L28,26.5c0-0.1,0.1-0.2,0.1-0.2l0.7-0.3
			c0.2-0.1,0.3-0.3,0.3-0.5v-1.2C29.1,24.1,29,23.9,28.8,23.8z M28,25.1l-0.6,0.3c-0.2,0.1-0.3,0.2-0.3,0.4c0,0.2-0.1,0.4-0.2,0.6
			c-0.1,0.2-0.1,0.3,0,0.5l0.3,0.6c-0.1,0.1-0.1,0.2-0.2,0.3l-0.7-0.1c-0.2,0-0.4,0-0.5,0.1c-0.2,0.1-0.3,0.3-0.5,0.4
			c-0.2,0.1-0.3,0.3-0.3,0.4L25,29.2l-0.4,0.1l-0.4-0.5c-0.1-0.1-0.3-0.2-0.4-0.2h-0.7c-0.2,0-0.3,0.1-0.4,0.2l-0.4,0.5l-0.4-0.1
			l-0.1-0.7c0-0.2-0.1-0.3-0.3-0.4c-0.2-0.1-0.3-0.2-0.5-0.4c-0.1-0.1-0.3-0.2-0.5-0.1l-0.6,0.1l-0.2-0.3l0.3-0.6
			c0.1-0.2,0.1-0.3,0-0.5c-0.1-0.2-0.1-0.4-0.2-0.6c0-0.2-0.2-0.3-0.3-0.4l-0.6-0.3v-0.4l0.6-0.3c0.2-0.1,0.3-0.2,0.3-0.4
			c0-0.2,0.1-0.4,0.2-0.6c0.1-0.2,0.1-0.3,0-0.5l-0.3-0.6c0.1-0.1,0.1-0.2,0.2-0.3l0.7,0.1c0.2,0,0.4,0,0.5-0.1
			c0.2-0.1,0.3-0.3,0.5-0.4c0.2-0.1,0.3-0.3,0.3-0.4l0.1-0.7l0.4-0.1l0.4,0.5c0.1,0.1,0.3,0.2,0.4,0.2h0.7c0.2,0,0.3-0.1,0.4-0.2
			l0.4-0.5l0.4,0.1l0.1,0.7c0,0.2,0.1,0.3,0.3,0.4c0.2,0.1,0.3,0.2,0.5,0.4c0.1,0.1,0.3,0.2,0.5,0.1L27,22c0.1,0.1,0.2,0.2,0.2,0.3
			l-0.3,0.6c-0.1,0.2-0.1,0.3,0,0.5c0.1,0.2,0.1,0.4,0.2,0.6c0,0.2,0.2,0.3,0.3,0.4l0.6,0.3V25.1z M23.5,22.1
			c-1.6,0-2.9,1.3-2.9,2.8c0,1.6,1.3,2.8,2.9,2.8c1.6,0,2.9-1.3,2.9-2.8C26.3,23.3,25,22.1,23.5,22.1z M23.5,26.6
			c-0.9,0-1.7-0.8-1.7-1.7c0-0.9,0.8-1.7,1.7-1.7c0.9,0,1.7,0.8,1.7,1.7C25.2,25.8,24.4,26.6,23.5,26.6z M30.9,34.5H32v-1.1h-1.1
			V34.5z M33.2,33.4v1.1h1.1v-1.1H33.2z"/>
	</g>
</g>
</svg>
