<?xml version="1.0" encoding="utf-8"?>
<!-- Generator: Adobe Illustrator 22.1.0, SVG Export Plug-In . SVG Version: 6.00 Build 0)  -->
<svg version="1.1" id="Layer_1" xmlns="http://www.w3.org/2000/svg" xmlns:xlink="http://www.w3.org/1999/xlink" x="0px" y="0px"
	 viewBox="0 0 40 38" enable-background="new 0 0 40 38" xml:space="preserve">
<g>
	<g>
		<path d="M39.7,34c-1.1-4-4.8-6.8-9.1-6.8c-0.3,0-0.7,0-1,0.1l2.2-4.3l0,0C31.9,23,32,23,32.1,23c0.3,0,0.6-0.2,0.7-0.4
			c0.2-0.4,0-0.8-0.4-1l-2.9-1.4l0.8-1.7c0.1-0.2,0.1-0.4,0-0.6c-0.1-0.2-0.2-0.3-0.4-0.4l-0.2-0.1l5.4-10.6c0.1,0,0.3,0,0.4,0
			c1.2-0.1,2.4-0.9,2.9-1.9l0.1-0.2c0,0,0.1,0,0.1,0c0.3,0,0.6-0.2,0.7-0.4c0.2-0.4,0-0.8-0.4-1l-6.9-3.3c-0.4-0.2-0.9,0-1,0.3
			c-0.2,0.3-0.1,0.7,0.2,0.9l-0.1,0.2c-0.5,1.1-0.5,2.4,0.2,3.4c0.1,0.1,0.1,0.2,0.2,0.3l-5.4,10.6L26,15.7c-0.4-0.2-0.9,0-1,0.3
			l-0.8,1.7l-2.9-1.4c-0.4-0.2-0.9,0-1,0.3c-0.2,0.4,0,0.8,0.4,1l0,0l-3,6c-1.6,0.2-3.1,0.7-4.5,1.6c-1.6,1-2.9,2.3-3.9,3.9
			c-0.2,0-0.4,0-0.7,0c-3.3,0-6.4,1.9-7.7,4.8C0.2,35,0,36.1,0,37.2c0,0.2,0.1,0.4,0.2,0.5C0.4,37.9,0.6,38,0.8,38h38.4
			c0.4,0,0.7-0.3,0.8-0.7c0-0.3,0.1-0.7,0.1-1C40,35.5,39.9,34.8,39.7,34z M32.6,2.2L32.7,2l4.5,2.1l-0.1,0.2
			c-0.3,0.6-0.9,1-1.6,1.1c-1.1,0.1-2.1-0.4-2.7-1.3C32.3,3.5,32.3,2.8,32.6,2.2z M32.8,6.2c0.2,0.1,0.5,0.3,0.8,0.4l-5.2,10.2
			l-0.8-0.4L32.8,6.2z M26.1,17.4l2.6,1.2l-0.5,1l-2.6-1.2L26.1,17.4z M21.9,18.3l8.4,4l-2.6,5.2c-2.1-2.4-5.2-3.8-8.5-3.9
			L21.9,18.3z M38.4,36.5H1.6C1.7,36,1.8,35.5,2,35H8c0.4,0,0.8-0.3,0.8-0.8c0-0.4-0.4-0.8-0.8-0.8H2.8c1.5-2,4-3.2,6.7-2.8
			c0.3,0,0.7-0.1,0.8-0.4c1.7-3.2,5-5.2,8.8-5.2c3.1,0,6.1,1.5,7.9,3.9c0.2,0.3,0.6,0.4,0.9,0.3c0.2-0.1,0.3-0.1,0.5-0.2
			c0,0,0,0,0,0c0.7-0.2,1.4-0.3,2.2-0.3c3.2,0,6.1,1.9,7.3,4.7H18.2c-0.4,0-0.8,0.3-0.8,0.8c0,0.4,0.3,0.8,0.8,0.8h20.1
			c0.1,0.4,0.1,0.9,0.1,1.3C38.4,36.4,38.4,36.4,38.4,36.5z M19,28c2.1,0,4.2,1,5.4,2.7c0.2,0.2,0.4,0.3,0.6,0.3
			c0.2,0,0.3,0,0.5-0.1c0.3-0.2,0.4-0.7,0.2-1c-1.6-2.1-4.1-3.3-6.7-3.3c-0.4,0-0.8,0.3-0.8,0.8S18.6,28,19,28z M16.3,33.9
			c0,0,0-0.1-0.1-0.1c0,0-0.1-0.1-0.1-0.1c-0.2-0.2-0.5-0.3-0.7-0.2c0,0-0.1,0-0.1,0c0,0-0.1,0-0.1,0.1c0,0-0.1,0.1-0.1,0.1
			c0,0-0.1,0.1-0.1,0.1c0,0-0.1,0.1-0.1,0.1c0,0,0,0.1,0,0.1c0,0,0,0.1,0,0.1c0,0.2,0.1,0.4,0.2,0.5c0,0,0.1,0.1,0.1,0.1
			c0,0,0.1,0,0.1,0.1c0,0,0.1,0,0.1,0c0,0,0.1,0,0.2,0c0.2,0,0.4-0.1,0.6-0.2c0.1-0.1,0.2-0.3,0.2-0.5c0,0,0-0.1,0-0.1
			C16.3,34,16.3,34,16.3,33.9z"/>
	</g>
</g>
</svg>
