<?xml version="1.0" encoding="utf-8"?>
<!-- Generator: Adobe Illustrator 22.1.0, SVG Export Plug-In . SVG Version: 6.00 Build 0)  -->
<svg version="1.1" id="Layer_1" xmlns="http://www.w3.org/2000/svg" xmlns:xlink="http://www.w3.org/1999/xlink" x="0px" y="0px"
	 viewBox="0 0 69 52" enable-background="new 0 0 69 52" xml:space="preserve">
<g>
	<g>
		<path d="M16.3,0C7.3,0,0,7.3,0,16.3C0,25,6.8,32.2,15.4,32.6c0.1,1.6,0,6-4.1,12c-0.3,0.5-0.3,1.1,0.1,1.5
			c1.7,1.7,2.8,2.8,3.5,3.5c1,1,1.4,1.4,2.1,2c0.2,0.2,0.5,0.3,0.8,0.3c0.3,0,0.5-0.1,0.8-0.3c7.3-6.3,15.4-19.4,14.2-35.5
			C32,6.8,25.1,0,16.3,0z M17.7,49.3c-0.3-0.3-0.7-0.7-1.2-1.2c-0.6-0.7-1.5-1.5-2.9-2.9c5.1-7.8,4.1-13.4,3.7-14.2
			c-0.2-0.4-0.6-0.6-1-0.6c-7.7,0-14-6.3-14-14c0-7.7,6.3-14,14-14c7.5,0,13.4,5.9,14,14.1C31.7,34.5,21,46.2,17.7,49.3z M68.9,16.3
			L68.9,16.3C68.2,6.8,61.4,0,52.6,0c-9,0-16.3,7.3-16.3,16.3c0,8.7,6.8,15.8,15.4,16.3c0.1,1.6,0,6-4.1,12
			c-0.3,0.5-0.3,1.1,0.1,1.5c1.7,1.7,2.8,2.8,3.5,3.5c1,1,1.4,1.4,2.1,2c0.2,0.2,0.5,0.3,0.8,0.3c0.3,0,0.5-0.1,0.8-0.3
			C62,45.4,70.1,32.3,68.9,16.3z M54,49.3c-0.3-0.3-0.7-0.7-1.2-1.2c-0.6-0.7-1.5-1.5-2.8-2.9C55,37.4,54,31.8,53.6,31
			c-0.2-0.4-0.6-0.6-1-0.6c-7.7,0-14-6.3-14-14c0-7.7,6.3-14,14-14c7.5,0,13.4,5.9,14,14.1v0C67.9,34.5,57.2,46.2,54,49.3z"/>
	</g>
</g>
</svg>
