<?xml version="1.0" encoding="utf-8"?>
<!-- Generator: Adobe Illustrator 22.1.0, SVG Export Plug-In . SVG Version: 6.00 Build 0)  -->
<svg version="1.1" id="Layer_1" xmlns="http://www.w3.org/2000/svg" xmlns:xlink="http://www.w3.org/1999/xlink" x="0px" y="0px"
	 viewBox="0 0 37 33" enable-background="new 0 0 37 33" xml:space="preserve">
<g>
	<g>
		<path d="M30.7,5.2c0.4,0,0.7-0.3,0.7-0.7s-0.3-0.7-0.7-0.7c-0.4,0-0.7,0.3-0.7,0.7S30.3,5.2,30.7,5.2z M34.4,3c-1.7-2-4.1-3-6.7-3
			c-2.9,0-5.5,1.1-7.6,3.2c-0.7,0.7-1.3,1.5-1.6,2.1c-0.4-0.6-0.9-1.3-1.6-2.1C14.8,1.1,12.2,0,9.3,0C3.8,0,0,4.6,0,10.1
			c0,7.4,7.8,13.7,18,22.7c0.1,0.1,0.3,0.2,0.5,0.2c0.2,0,0.3-0.1,0.5-0.2c10.2-9,18-15.2,18-22.7C37,7.4,36.1,4.9,34.4,3z
			 M18.5,31.3C8.8,22.9,1.4,16.8,1.4,10.1c0-5,3.4-8.7,7.9-8.7c2.5,0,4.7,0.9,6.5,2.8c1.4,1.4,2,2.8,2,2.9c0.1,0.3,0.4,0.4,0.7,0.4
			h0c0.3,0,0.5-0.2,0.7-0.4c0,0,0.7-1.4,2-2.9c1.8-1.8,4-2.8,6.5-2.8c4.5,0,7.9,3.7,7.9,8.7C35.6,16.9,27.7,23.3,18.5,31.3z
			 M33.2,6.4c-0.2-0.4-0.6-0.5-1-0.3c-0.4,0.2-0.5,0.6-0.3,1c0.5,0.9,0.7,2,0.7,3.1c0,2.1-1,4.4-3.1,7.1c-0.2,0.3-0.2,0.8,0.1,1
			c0.3,0.3,0.8,0.2,1-0.1c2.3-3,3.4-5.5,3.4-8C34.1,8.8,33.8,7.5,33.2,6.4z M25.4,14h-4V9.9c0-0.4-0.3-0.7-0.7-0.7h-4.3
			c-0.4,0-0.7,0.3-0.7,0.7V14h-4c-0.4,0-0.7,0.3-0.7,0.7v4.4c0,0.4,0.3,0.7,0.7,0.7h4v4.1c0,0.4,0.3,0.7,0.7,0.7h4.3
			c0.4,0,0.7-0.3,0.7-0.7v-4.1h4c0.4,0,0.7-0.3,0.7-0.7v-4.4C26.2,14.3,25.8,14,25.4,14z M24.7,18.4h-4c-0.4,0-0.7,0.3-0.7,0.7v4.1
			h-2.9v-4.1c0-0.4-0.3-0.7-0.7-0.7h-4v-2.9h4c0.4,0,0.7-0.3,0.7-0.7v-4.1h2.9v4.1c0,0.4,0.3,0.7,0.7,0.7h4V18.4z"/>
	</g>
</g>
</svg>
