<?xml version="1.0" encoding="utf-8"?>
<!-- Generator: Adobe Illustrator 22.1.0, SVG Export Plug-In . SVG Version: 6.00 Build 0)  -->
<svg version="1.1" id="Layer_1" xmlns="http://www.w3.org/2000/svg" xmlns:xlink="http://www.w3.org/1999/xlink" x="0px" y="0px"
	 viewBox="0 0 44 34" enable-background="new 0 0 44 34" xml:space="preserve">
<path d="M43.3,32.6h-9.4v-4.4c2-0.3,3.9-1.5,4.9-3.4c1.4-0.3,2.7-1.1,3.6-2.3c1-1.3,1.6-2.9,1.6-4.5c0-2.5-1.3-4.9-3.4-6.1
	c-0.2-4.2-3.5-7.6-7.6-7.6c-1.3,0-2.5,0.3-3.6,1c-0.3,0.2-0.5,0.6-0.3,1c0.2,0.3,0.6,0.5,1,0.3C31,6,32,5.8,33,5.8
	c3.4,0,6.1,3,6.1,6.6c0,0.3,0.2,0.5,0.4,0.6c1.8,0.9,3,2.9,3,5c0,2.7-1.9,5.1-4.4,5.5c-0.2,0-0.4,0.2-0.5,0.4
	c-0.8,1.6-2.2,2.6-3.8,2.9v-6.3l3.6-3.2c0.3-0.3,0.3-0.7,0-1c-0.3-0.3-0.7-0.3-1,0l-2.6,2.3v-4.7c0-0.4-0.3-0.7-0.7-0.7
	c-0.4,0-0.7,0.3-0.7,0.7v8.6l-2.6-2.3c-0.3-0.3-0.8-0.2-1,0c-0.3,0.3-0.3,0.7,0,1l3.6,3.2v2.5c-1.7-0.2-3.2-1.3-4-3
	c-0.1-0.2-0.3-0.3-0.5-0.4c-2.4-0.5-4.2-2.8-4.2-5.4c0-2.1,1.1-4,2.8-4.9c0.2-0.1,0.4-0.4,0.4-0.6c0,0,0,0,0-0.1c0,0,0,0,0,0
	c0-1.5,0.4-2.9,1.3-4c0.2-0.3,0.2-0.8-0.2-1c-0.3-0.2-0.8-0.2-1,0.2c-1,1.3-1.5,2.9-1.6,4.6c-2,1.3-3.2,3.5-3.2,5.9
	c0,3.2,2.1,6,5,6.7c1.1,2,3,3.3,5.2,3.5v4.3H32c-0.1-1.9-1.4-3.5-3.2-4c-0.6-1.2-1.7-2-3-2.3c-0.4-1.9-2.2-3.3-4.2-3.3
	c-1.6,0-3,0.8-3.7,2.1c-1.5,0.1-2.8,0.8-3.6,2c-0.5-1.3-1.7-2.2-3.1-2.3v-1.9c2-0.3,3.7-1.5,4.7-3.3c1.3-0.3,2.6-1.1,3.5-2.2
	c1-1.2,1.5-2.8,1.5-4.4c0-2.4-1.3-4.7-3.3-5.8c-0.2-4-3.4-7.3-7.3-7.3C8.8,0,7.4,0.5,6.2,1.4C5.9,1.6,5.8,2,6,2.4
	c0.2,0.3,0.7,0.4,1,0.1c1-0.7,2.1-1.1,3.3-1.1c3.2,0,5.8,2.8,5.8,6.3c0,0.3,0.2,0.5,0.4,0.6c1.7,0.9,2.8,2.7,2.8,4.8
	c0,2.6-1.8,4.8-4.2,5.2c-0.2,0-0.4,0.2-0.5,0.4c-0.7,1.5-2.1,2.5-3.6,2.8v-6l3.4-3.1c0.3-0.3,0.3-0.7,0-1c-0.3-0.3-0.7-0.3-1,0
	l-2.4,2.2V9.1c0-0.4-0.3-0.7-0.7-0.7S9.7,8.7,9.7,9.1v8.2l-2.4-2.2c-0.3-0.3-0.8-0.2-1,0c-0.3,0.3-0.3,0.7,0,1l3.4,3.1v2.3
	c-1.6-0.2-3-1.3-3.8-2.9c-0.1-0.2-0.3-0.3-0.5-0.4c-2.3-0.5-3.9-2.6-3.9-5.2c0-2,1-3.8,2.7-4.7C4.3,8.3,4.5,8,4.5,7.8c0,0,0,0,0-0.1
	c0,0,0,0,0,0C4.5,6.8,4.6,6,5,5.2c0.1-0.2,0.2-0.5,0.3-0.7c0.2-0.3,0.1-0.8-0.3-1C4.7,3.3,4.2,3.5,4,3.8C3.9,4.1,3.7,4.4,3.6,4.6
	C3.3,5.5,3.1,6.4,3,7.4c-1.9,1.2-3,3.4-3,5.7c0,3.1,2,5.7,4.8,6.5c1,1.9,2.9,3.2,4.9,3.4v2c-0.8,0.3-1.5,0.8-1.9,1.5
	c-1.8,0.1-3.2,1.4-3.5,3.1c-1.3,0.6-2.3,1.7-2.6,3h-1c-0.4,0-0.7,0.3-0.7,0.7S0.3,34,0.7,34h1.6h16.4h12.5h12c0.4,0,0.7-0.3,0.7-0.7
	S43.7,32.6,43.3,32.6z M3.2,32.6c0.3-0.9,1.1-1.6,2-1.8c0.3-0.1,0.5-0.4,0.5-0.7c0-1.2,1-2.2,2.3-2.2c0,0,0.1,0,0.2,0
	c0.3,0,0.6-0.2,0.7-0.4c0.3-0.8,1.1-1.3,2-1.3c1.1,0,2.1,0.9,2.2,1.9c0,0.3,0.3,0.6,0.7,0.7c0.2,0,0.4,0.1,0.6,0.1c0,0,0,0,0,0
	c0,0,0.1,0,0.1,0c0,0,0,0,0,0c0,0,0.1,0,0.1,0c0,0,0,0,0,0c0,0,0.1,0,0.1,0.1c0,0,0,0,0.1,0c0,0,0,0,0,0c0,0,0,0,0.1,0c0,0,0,0,0,0
	c0,0,0.1,0,0.1,0.1c0,0,0,0,0,0c0.1,0.1,0.1,0.1,0.2,0.2c0,0,0,0,0,0c0,0,0.1,0.1,0.1,0.1c0,0,0,0,0,0c0.1,0.1,0.1,0.2,0.2,0.2
	c0,0,0,0,0,0c0,0,0,0.1,0,0.1c0,0,0,0,0,0c0,0,0,0.1,0.1,0.1c0,0,0,0,0,0c0.1,0.2,0.3,0.4,0.5,0.5c0.1,0,0.1,0,0.2,0c0,0,0,0,0.1,0
	c0,0,0.1,0,0.1,0c0,0,0,0,0.1,0c0,0,0.1,0,0.1,0c0,0,0,0,0.1,0c0,0,0.1,0,0.1,0.1c0,0,0,0,0.1,0c0,0,0.1,0,0.1,0.1c0,0,0,0,0.1,0
	c0,0,0.1,0,0.1,0.1c0,0,0,0,0.1,0c0,0,0.1,0.1,0.1,0.1c0,0,0,0,0,0c0,0,0.1,0.1,0.1,0.1c0,0,0,0,0,0c0,0,0.1,0.1,0.1,0.1
	c0,0,0,0,0,0c0,0,0.1,0.1,0.1,0.1c0,0,0,0,0,0.1c0,0,0,0.1,0.1,0.1c0,0,0,0,0,0.1c0,0,0,0.1,0,0.1c0,0,0,0,0,0.1c0,0,0,0.1,0,0.1
	c0,0,0,0.1,0,0.1c0,0,0,0.1,0,0.1c0,0,0,0.1,0,0.1c0,0,0,0,0,0H3.2L3.2,32.6z M19.4,32.6L19.4,32.6C19.4,32.6,19.4,32.6,19.4,32.6
	c0-0.1,0-0.2,0-0.3c0,0,0,0,0,0c0-0.1,0-0.2-0.1-0.3c0,0,0,0,0,0c0-0.1,0-0.2-0.1-0.2c0,0,0,0,0,0c0-0.1-0.1-0.2-0.1-0.2
	c0,0,0,0,0,0c0-0.1-0.1-0.1-0.1-0.2c0,0,0,0,0,0c0-0.1-0.1-0.1-0.1-0.2c0,0,0,0,0,0c0-0.1-0.1-0.1-0.1-0.2c0,0,0,0,0,0
	c0-0.1-0.1-0.1-0.2-0.2c0,0,0,0,0,0c-0.1-0.1-0.1-0.1-0.2-0.2c0,0,0,0,0,0c-0.1-0.1-0.1-0.1-0.2-0.2c0,0,0,0,0,0
	c-0.1-0.1-0.1-0.1-0.2-0.2c0,0,0,0,0,0c-0.1,0-0.1-0.1-0.2-0.1c0,0,0,0,0,0c-0.1,0-0.1-0.1-0.2-0.1c0,0,0,0,0,0
	c-0.1,0-0.1-0.1-0.2-0.1c0,0,0,0,0,0c-0.1,0-0.2-0.1-0.2-0.1c0,0,0,0,0,0c-0.1,0-0.2-0.1-0.3-0.1c0,0,0,0,0,0c0,0,0,0,0,0
	c0-0.1-0.1-0.1-0.1-0.2c0,0,0-0.1-0.1-0.1c0,0,0-0.1-0.1-0.1c0,0,0-0.1-0.1-0.1c0,0,0-0.1-0.1-0.1c0,0-0.1-0.1-0.1-0.1
	c0,0,0,0,0-0.1c-0.1-0.1-0.1-0.1-0.2-0.2c0,0,0,0,0,0c0,0-0.1-0.1-0.1-0.1c0,0,0,0-0.1-0.1c0,0-0.1-0.1-0.1-0.1c0,0,0,0-0.1-0.1
	c0,0-0.1,0-0.1-0.1c0,0-0.1-0.1-0.1-0.1c0,0,0,0,0,0C16,27,17,26.5,18,26.5c0.1,0,0.1,0,0.2,0c0.3,0,0.6-0.2,0.7-0.4
	c0.4-1,1.5-1.7,2.6-1.7c1.5,0,2.7,1.1,2.8,2.6c0,0.3,0.3,0.6,0.7,0.7c1.1,0.1,2.1,0.8,2.4,1.8c0.1,0.2,0.3,0.4,0.5,0.5
	c1.3,0.3,2.3,1.4,2.4,2.7L19.4,32.6L19.4,32.6z"/>
</svg>
