<?xml version="1.0" encoding="utf-8"?>
<!-- Generator: Adobe Illustrator 22.1.0, SVG Export Plug-In . SVG Version: 6.00 Build 0)  -->
<svg version="1.1" id="Layer_1" xmlns="http://www.w3.org/2000/svg" xmlns:xlink="http://www.w3.org/1999/xlink" x="0px" y="0px"
	 viewBox="0 0 41 35" enable-background="new 0 0 41 35" xml:space="preserve">
<path d="M40.8,22.6l-3.1-3.2c-0.4-0.4-1-0.6-1.5-0.6c-0.4,0-0.8,0.1-1.2,0.4l-2.6-2.7l0.9-0.9c1-1,1-2.6,0-3.6
	c-0.4-0.4-1-0.7-1.6-0.7c0.3-0.9,0-1.9-0.6-2.5c-0.4-0.4-0.9-0.7-1.4-0.7c0.1-0.3,0.2-0.6,0.2-0.9c0-0.7-0.3-1.3-0.7-1.8
	c-0.4-0.4-1-0.7-1.6-0.7c0.2-0.9,0-1.8-0.6-2.5C26.4,1.3,25.8,1,25.1,1c-0.5,0-1,0.1-1.4,0.4l-0.2-0.3c-0.4-0.7-1.2-1.2-2-1.1
	l-3.8,0.5c-0.4-0.4-1-0.6-1.6-0.6c-0.6,0-1.3,0.3-1.7,0.7c-0.4,0.4-0.7,1-0.7,1.6c-0.2,0-0.3-0.1-0.5-0.1c-0.6,0-1.3,0.3-1.7,0.7v0
	c-0.7,0.7-0.9,1.7-0.6,2.5c-0.5,0.1-1,0.3-1.4,0.7c0,0,0,0,0,0C8.9,6.9,8.7,7.8,8.9,8.6c-0.6,0-1.1,0.3-1.5,0.7l0,0
	c-0.9,1-0.9,2.5,0,3.5l0.9,1c0.1,0.1,0.2,0.2,0.3,0.3c0.1,0.7,0.4,1.4,0.8,2L6,19.5c-0.8-0.6-2-0.5-2.7,0.3L0.2,23
	c-0.4,0.4-0.1,1,0.4,1C0.8,24,0.9,24,1,23.8l3.1-3.2c0.4-0.4,1-0.4,1.4,0l1.9,2c0.2,0.2,0.6,0.2,0.8,0c0.2-0.2,0.2-0.6,0-0.9
	l-1.4-1.4l3.8-3.9c0.2-0.2,0.2-0.6,0-0.9c-0.3-0.3-0.5-0.7-0.7-1.1c0,0,0,0,0,0c0.6,0,1.2-0.2,1.7-0.7c0.4-0.4,0.7-1,0.7-1.5
	c0.2,0.1,0.4,0.1,0.6,0.1c0.6,0,1.3-0.3,1.7-0.7c0.4-0.4,0.6-0.9,0.7-1.4c0.3,0.1,0.5,0.1,0.8,0.1c0.6,0,1.3-0.3,1.7-0.7
	c0.8-0.9,0.9-2.2,0.3-3.2c0.4-0.1,0.8-0.3,1.2-0.7c0,0,0,0,0,0c0.1,0,0.2,0,0.3,0l1.4-0.2c0.2,0,0.3-0.1,0.5-0.2l0,0c0,0,0,0,0,0
	l0.6-0.6L24,2.9c0,0,0,0,0,0l0.2-0.2c0.2-0.3,0.6-0.4,0.9-0.4c0.4,0,0.7,0.1,0.9,0.4c0.5,0.5,0.5,1.4,0,1.9l-0.5,0.5
	c-0.2,0.2-0.2,0.6,0,0.9c0.2,0.2,0.6,0.2,0.8,0l0,0c0.5-0.5,1.3-0.5,1.9,0c0.2,0.3,0.4,0.6,0.4,0.9c0,0.4-0.1,0.7-0.4,0.9l-0.7,0.7
	c0,0,0,0,0,0c-0.2,0.2-0.2,0.6,0,0.9c0.2,0.2,0.6,0.2,0.8,0l0,0C28.6,9.2,29,9,29.3,9c0.4,0,0.7,0.1,0.9,0.4c0.5,0.5,0.5,1.4,0,1.9
	l-0.5,0.5c-0.2,0.2-0.2,0.6,0,0.9c0.2,0.2,0.6,0.2,0.8,0c0.2-0.3,0.6-0.4,0.9-0.4c0.3,0,0.7,0.1,0.9,0.4c0.5,0.5,0.5,1.4,0,1.9
	L31.1,16c0,0,0,0,0,0c0,0,0,0,0,0l-7.7,7.9c-0.5,0.5-1.2,0.8-2,0.8c-0.7,0-1.4-0.3-2-0.8l-0.1-0.1c-0.2-0.2-0.6-0.2-0.8,0L14.3,28
	L10,23.5c-0.2-0.2-0.6-0.2-0.8,0c-0.2,0.2-0.2,0.6,0,0.9l4.9,5c0.4,0.4,0.4,1,0,1.4L10.9,34c-0.2,0.2-0.2,0.6,0,0.9
	c0.1,0.1,0.3,0.2,0.4,0.2c0.2,0,0.3-0.1,0.4-0.2l3.1-3.2c0.7-0.8,0.8-1.9,0.3-2.8l3.8-3.9c0.7,0.6,1.6,0.9,2.5,0.9
	c1.1,0,2.1-0.4,2.8-1.2l7.3-7.4l2.6,2.7l-7.5,7.6L25.1,26c-0.2-0.2-0.6-0.2-0.8,0c-0.2,0.2-0.2,0.6,0,0.9l1.6,1.6
	c-0.2,0.4-0.3,0.8-0.3,1.2c0,0.6,0.2,1.1,0.6,1.6l3.1,3.2c0.2,0.2,0.6,0.2,0.8,0c0.2-0.2,0.2-0.6,0-0.9L27,30.4
	c-0.2-0.2-0.3-0.4-0.3-0.7c0-0.3,0.1-0.5,0.3-0.7l8.5-8.7c0.2-0.2,0.4-0.3,0.7-0.3c0.3,0,0.5,0.1,0.7,0.3l3.1,3.2
	c0.2,0.2,0.6,0.2,0.8,0C41.1,23.2,41.1,22.8,40.8,22.6z M15.3,1.6c0.2-0.2,0.5-0.3,0.8-0.4c0,0,0,0,0,0c-0.2,0.3-0.3,0.6-0.2,1
	l0.1,0.7c0.1,0.9,0.6,1.7,1.3,2.2c0.1,0,0.1,0.1,0.2,0.1c-0.2,0-0.5-0.2-0.6-0.3L16,4.1l-0.7-0.7C14.8,2.9,14.8,2.1,15.3,1.6z
	 M10.9,12.9c-0.5,0.5-1.3,0.5-1.7,0l-0.9-1c-0.5-0.5-0.5-1.3,0-1.8v0c0.5-0.5,1.3-0.5,1.7,0l0.6,0.6l0.4,0.4
	c0.2,0.2,0.4,0.6,0.4,0.9C11.2,12.4,11.1,12.7,10.9,12.9z M13.9,10.7c-0.2,0.2-0.5,0.4-0.9,0.4c-0.3,0-0.6-0.1-0.9-0.4l-0.8-0.8
	l-0.6-0.6c0,0,0,0,0,0l-0.4-0.4c-0.5-0.5-0.5-1.3,0-1.8l0,0c0.5-0.5,1.3-0.5,1.7,0L13.9,9C14.4,9.4,14.4,10.2,13.9,10.7z M17.1,8.7
	c-0.2,0.2-0.5,0.4-0.9,0.4c-0.3,0-0.6-0.1-0.9-0.4l-0.6-0.6c0,0,0,0,0,0l-1.8-1.9c0,0,0,0,0,0l-0.6-0.6c-0.5-0.5-0.5-1.3,0-1.8l0,0
	c0.5-0.5,1.3-0.5,1.7,0l0.3,0.4c0,0,0,0,0,0l0.7,0.7l2,2.1C17.6,7.4,17.6,8.2,17.1,8.7z M22.4,2.7l-1.5,1.5l-1.4,0.2
	c-0.6,0.1-1.1,0-1.6-0.4c-0.5-0.3-0.8-0.8-0.9-1.4L17,2.1C17,2,17,2,17,2c0,0,0,0,0.1,0l4.6-0.7c0,0,0.1,0,0.1,0
	c0.3,0,0.5,0.2,0.7,0.4l0.3,0.6L22.4,2.7z"/>
</svg>
