<?xml version="1.0" encoding="utf-8"?>
<!-- Generator: Adobe Illustrator 22.1.0, SVG Export Plug-In . SVG Version: 6.00 Build 0)  -->
<svg version="1.1" id="Layer_1" xmlns="http://www.w3.org/2000/svg" xmlns:xlink="http://www.w3.org/1999/xlink" x="0px" y="0px"
	 viewBox="0 0 37 37" enable-background="new 0 0 37 37" xml:space="preserve">
<g>
	<g>
		<path d="M17.9,6.5c-0.3,0.4-7.1,9.2-7.1,15.1c0,4,3.1,7.3,6.9,7.7v2.4c0,0.4,0.3,0.8,0.8,0.8c0.4,0,0.8-0.3,0.8-0.8v-2.4
			c3.9-0.4,6.9-3.7,6.9-7.7c0-5.9-6.8-14.7-7.1-15.1C18.8,6.1,18.2,6.1,17.9,6.5z M17.7,9.3v6.8L15,13.8
			C15.9,12.1,16.9,10.5,17.7,9.3z M17.7,27.7c-3-0.4-5.4-3-5.4-6.1c0-0.5,0.1-1,0.2-1.5l5.2,4.2V27.7z M17.7,22.3L17.7,22.3
			l-4.8-3.9c0.3-1.1,0.8-2.2,1.3-3.3l3.5,2.9V22.3z M19.3,9.3c0.8,1.2,1.8,2.7,2.8,4.5l-2.8,2.3V9.3z M22.8,15.2
			c0.5,1.1,1,2.2,1.3,3.3l-4.8,3.9v-4.2h0L22.8,15.2z M19.3,24.3l5.2-4.2c0.1,0.5,0.2,1,0.2,1.5c0,3.2-2.4,5.7-5.4,6.1V24.3z
			 M35.8,21.4c0.6-0.8,1.2-1.8,1.2-2.9c0-1.1-0.7-2-1.2-2.9c-0.4-0.5-0.7-1.1-0.9-1.5c-0.1-0.5-0.1-1.1,0-1.8c0.1-1,0.2-2.1-0.3-3
			C34,8.3,33,7.8,32,7.4c-0.6-0.3-1.2-0.6-1.6-0.9c-0.4-0.4-0.6-0.9-0.9-1.6C29.2,4,28.7,3,27.8,2.5c-0.9-0.5-2-0.4-3-0.3
			c-0.7,0.1-1.3,0.1-1.8,0c-0.5-0.1-1-0.5-1.5-0.9C20.5,0.7,19.6,0,18.5,0c-1.1,0-2,0.7-2.9,1.2c-0.5,0.4-1.1,0.7-1.5,0.9
			c-0.5,0.1-1.1,0.1-1.8,0c-1-0.1-2.1-0.2-3,0.3C8.3,3,7.8,4,7.4,5C7.1,5.6,6.9,6.2,6.5,6.5C6.2,6.9,5.6,7.1,5,7.4
			C4,7.8,3,8.3,2.5,9.2c-0.5,0.9-0.4,2-0.3,3c0.1,0.7,0.1,1.3,0,1.8c-0.1,0.5-0.5,1-0.9,1.5C0.7,16.5,0,17.4,0,18.5
			c0,1.1,0.7,2,1.2,2.9c0.4,0.5,0.7,1.1,0.9,1.5c0.1,0.5,0.1,1.1,0,1.8c-0.1,1-0.2,2.1,0.3,3C3,28.7,4,29.2,5,29.6
			c0.6,0.3,1.2,0.6,1.6,0.9c0.4,0.4,0.6,0.9,0.9,1.6C7.8,33,8.3,34,9.2,34.5c0.9,0.5,2,0.4,3,0.3c0.7-0.1,1.3-0.1,1.8,0
			c0.5,0.1,1,0.5,1.5,0.9c0.8,0.6,1.8,1.2,2.9,1.2c1.1,0,2-0.7,2.9-1.2c0.5-0.4,1.1-0.7,1.5-0.9c0.5-0.1,1.1-0.1,1.8,0
			c1,0.1,2.1,0.2,3-0.3c0.9-0.5,1.4-1.6,1.8-2.5c0.3-0.6,0.6-1.2,0.9-1.6c0.4-0.4,0.9-0.6,1.6-0.9c0.9-0.4,1.9-0.9,2.5-1.8
			c0.5-0.9,0.4-2,0.3-3c-0.1-0.7-0.1-1.3,0-1.8C35,22.4,35.4,21.9,35.8,21.4z M34.5,20.5c-0.4,0.6-0.9,1.3-1.1,2
			c-0.2,0.8-0.1,1.6-0.1,2.4c0.1,0.8,0.1,1.6-0.1,2.1c-0.3,0.5-1,0.8-1.8,1.2c-0.7,0.3-1.4,0.7-2,1.2c-0.6,0.6-0.9,1.3-1.2,2
			c-0.4,0.8-0.7,1.5-1.2,1.8c-0.5,0.3-1.3,0.2-2.1,0.1c-0.8-0.1-1.6-0.1-2.4,0.1c-0.7,0.2-1.4,0.7-2,1.1c-0.7,0.5-1.4,1-2,1
			c-0.6,0-1.3-0.5-2-1c-0.6-0.4-1.3-0.9-2-1.1c-0.4-0.1-0.8-0.1-1.2-0.1c-0.4,0-0.8,0-1.2,0.1c-0.8,0.1-1.6,0.1-2.1-0.1
			c-0.5-0.3-0.8-1-1.2-1.8c-0.3-0.7-0.7-1.4-1.2-2c-0.6-0.6-1.3-0.9-2-1.2c-0.8-0.4-1.5-0.7-1.8-1.2c-0.3-0.5-0.2-1.3-0.1-2.1
			c0.1-0.8,0.1-1.6-0.1-2.4c-0.2-0.7-0.7-1.4-1.1-2c-0.5-0.7-1-1.4-1-2c0-0.6,0.5-1.3,1-2c0.4-0.6,0.9-1.3,1.1-2
			c0.2-0.8,0.1-1.6,0.1-2.4c-0.1-0.8-0.1-1.6,0.1-2.1c0.3-0.5,1-0.8,1.8-1.2c0.7-0.3,1.4-0.7,2-1.2c0.6-0.6,0.9-1.3,1.2-2
			C9.2,4.8,9.5,4.1,10,3.8c0.5-0.3,1.3-0.2,2.1-0.1c0.8,0.1,1.6,0.1,2.4-0.1c0.7-0.2,1.4-0.7,2-1.1c0.7-0.5,1.4-1,2-1
			c0.6,0,1.3,0.5,2,1c0.6,0.4,1.3,0.9,2,1.1c0.8,0.2,1.6,0.1,2.4,0.1c0.8-0.1,1.6-0.1,2.1,0.1c0.5,0.3,0.8,1,1.2,1.8
			c0.3,0.7,0.7,1.4,1.2,2c0.6,0.6,1.3,0.9,2,1.2c0.8,0.4,1.5,0.7,1.8,1.2c0.3,0.5,0.2,1.3,0.1,2.1c-0.1,0.8-0.1,1.6,0.1,2.4
			c0.2,0.7,0.7,1.4,1.1,2c0.5,0.7,1,1.4,1,2C35.5,19.1,35,19.8,34.5,20.5z"/>
	</g>
</g>
</svg>
