<?xml version="1.0" encoding="utf-8"?>
<!-- Generator: Adobe Illustrator 22.1.0, SVG Export Plug-In . SVG Version: 6.00 Build 0)  -->
<svg version="1.1" id="Layer_1" xmlns="http://www.w3.org/2000/svg" xmlns:xlink="http://www.w3.org/1999/xlink" x="0px" y="0px"
	 viewBox="0 0 131.3 135.8" enable-background="new 0 0 131.3 135.8" xml:space="preserve">
<g>
	<g>
		<g>
			<path d="M75.4,41.3C71.5,45.6,65,55.6,64.7,56c-0.5,0.8-0.3,2,0.5,2.5c0.6,0.4,1.3,0.4,1.9,0c0.2-0.1,0.5-0.3,0.6-0.6
				c0.1-0.1,6.6-10.2,10.3-14.2c0.7-0.7,0.6-1.9-0.1-2.6C77.2,40.5,76.1,40.6,75.4,41.3z M64.5,22.4c-3.9,4.3-10.4,14.3-10.7,14.7
				c-0.5,0.8-0.3,2,0.5,2.5c0.6,0.4,1.3,0.4,1.9,0c0.2-0.1,0.5-0.3,0.6-0.6C56.9,39,63.4,29,67.2,24.9c0.7-0.7,0.6-1.9-0.1-2.6
				C66.3,21.6,65.2,21.7,64.5,22.4z M130.1,76.8L94.6,15.4c-0.5-0.9-1.6-1.2-2.5-0.7c-0.9,0.5-1.2,1.6-0.7,2.5l35.4,61.4
				c1.5,2.6,0.6,5.9-2,7.4l-37.8,21.8l-2.1-3.6c1.8-2.1,6.7-7.4,12.6-10.8c13.7-7.9,24.8-10.3,24.9-10.3c0.6-0.1,1-0.5,1.3-1
				c0.2-0.5,0.2-1.1-0.1-1.7l-40-69.2c-0.4-0.7-1.3-1.1-2.1-0.8c0,0-1.4,0.4-3.7,1.3C77,12,76.5,13,76.9,14c0.3,0.9,1.4,1.4,2.3,1.1
				c0.9-0.3,1.6-0.6,2.2-0.8l38,65.9c-4.1,1.1-13,4-23.5,10.1c-6.9,4-12.3,10.1-13.9,12.1c-2.3,0.3-9.2,1.3-16,5.2
				c-10.8,6.3-18.7,13.2-22,16.3l-38.1-66c2.7-2.6,10.8-10,22-16.4c5.7-3.3,11.7-4.4,14.1-4.7l35.7,61.9c0.3,0.6,0.9,0.9,1.6,0.9
				c0.7,0,1.3-0.4,1.6-0.9c0.1-0.2,10.3-18.5,21.5-31.1c0.5-0.6,0.6-1.4,0.2-2.1L65.3,0.9C65,0.4,64.5,0.1,63.9,0
				c-0.6-0.1-1.2,0.2-1.6,0.7c-9.9,12-18,27.3-18.1,27.4c-0.5,0.9-0.1,2,0.8,2.5c0.9,0.5,2,0.1,2.5-0.8c0.1-0.1,7.2-13.4,16.1-24.8
				l35.3,61.1c-8.6,9.9-16.3,22.5-19.5,28L44.5,33.9c-0.3-0.6-1-0.9-1.7-0.9c-0.3,0-8.6,0.6-16.8,5.3c-14.2,8.2-23.4,17.6-23.8,18
				c-0.6,0.6-0.7,1.5-0.3,2.2l40,69.2c0.3,0.5,0.8,0.8,1.3,0.9c0.4,0,0.8,0,1.1-0.2c0.1-0.1,0.3-0.2,0.4-0.3
				c0.1-0.1,9.2-9.4,23-17.4c5.8-3.3,11.7-4.4,14.1-4.7l2.1,3.7l-37.8,21.8c-2.6,1.5-5.9,0.6-7.4-2L3.4,68.1
				c-0.5-0.9-1.6-1.2-2.5-0.7c-0.9,0.5-1.2,1.6-0.7,2.5l35.4,61.4c2.5,4.3,8.1,5.8,12.4,3.3l78.7-45.4
				C131.1,86.7,132.6,81.1,130.1,76.8z M69.9,31.9C66,36.2,59.5,46.2,59.2,46.6c-0.5,0.8-0.3,2,0.5,2.5c0.6,0.4,1.3,0.4,1.9,0
				c0.2-0.1,0.5-0.3,0.6-0.6c0.1-0.1,6.6-10.2,10.3-14.2c0.7-0.7,0.6-1.9-0.1-2.6C71.8,31.1,70.6,31.1,69.9,31.9z M80.8,50.8
				C76.9,55.1,70.4,65,70.1,65.5c-0.5,0.8-0.3,2,0.5,2.5c0.6,0.4,1.3,0.4,1.9,0c0.2-0.1,0.5-0.3,0.6-0.6c0.1-0.1,6.6-10.2,10.3-14.2
				c0.7-0.7,0.6-1.9-0.1-2.6C82.7,50,81.5,50,80.8,50.8z M42.9,53.2c-0.3-1-1.3-1.5-2.3-1.2c-11,3.3-20.4,12.6-20.8,13
				c-0.7,0.7-0.7,1.9,0,2.6c0.6,0.6,1.5,0.7,2.2,0.3c0.1-0.1,0.3-0.2,0.4-0.3c0.1-0.1,9.1-9,19.3-12.1
				C42.7,55.1,43.2,54.1,42.9,53.2z M27.5,77.2c0.1-0.1,0.3-0.2,0.4-0.3c0.1-0.1,9.1-9,19.3-12.1c1-0.3,1.5-1.3,1.2-2.3
				c-0.3-1-1.3-1.5-2.3-1.2c-11,3.3-20.4,12.6-20.8,13c-0.7,0.7-0.7,1.9,0,2.6C25.9,77.5,26.8,77.6,27.5,77.2z M76.1,77.4
				c0.6,0.4,1.3,0.4,1.9,0c0.2-0.1,0.5-0.3,0.6-0.6c0.1-0.1,6.6-10.2,10.3-14.2c0.7-0.7,0.6-1.9-0.1-2.6c-0.7-0.7-1.9-0.6-2.6,0.1
				c-3.9,4.3-10.4,14.3-10.7,14.7C75,75.7,75.3,76.9,76.1,77.4z M33,86.7c0.1-0.1,0.3-0.2,0.4-0.3c0.1-0.1,9.1-9,19.3-12.1
				c1-0.3,1.5-1.3,1.2-2.3c-0.3-1-1.3-1.5-2.3-1.2c-11,3.3-20.4,12.6-20.8,13c-0.7,0.7-0.7,1.9,0,2.6C31.4,87,32.3,87.1,33,86.7z
				 M43.9,105.6c0.1-0.1,0.3-0.2,0.4-0.3c0.1-0.1,9.1-9,19.3-12.1c1-0.3,1.5-1.3,1.2-2.3c-0.3-1-1.3-1.5-2.3-1.2
				c-11,3.3-20.4,12.6-20.8,13c-0.7,0.7-0.7,1.9,0,2.6C42.3,105.9,43.2,106,43.9,105.6z M38.4,96.1c0.1-0.1,0.3-0.2,0.4-0.3
				c0.1-0.1,9.1-9,19.3-12.1c1-0.3,1.5-1.3,1.2-2.3C59,80.5,58,80,57,80.3c-11,3.3-20.4,12.6-20.8,13c-0.7,0.7-0.7,1.9,0,2.6
				C36.8,96.4,37.7,96.5,38.4,96.1z"/>
		</g>
	</g>
</g>
</svg>
