<?xml version="1.0" encoding="utf-8"?>
<!-- Generator: Adobe Illustrator 22.1.0, SVG Export Plug-In . SVG Version: 6.00 Build 0)  -->
<svg version="1.1" id="Layer_1" xmlns="http://www.w3.org/2000/svg" xmlns:xlink="http://www.w3.org/1999/xlink" x="0px" y="0px"
	 viewBox="0 0 57 67" enable-background="new 0 0 57 67" xml:space="preserve">
<g>
	<g>
		<path d="M35,23.6c0.7,0,1.3-0.6,1.3-1.3c0-0.7-0.6-1.3-1.3-1.3c-0.7,0-1.3,0.6-1.3,1.3C33.7,23,34.2,23.6,35,23.6z M22,20.9
			c-0.7,0-1.3,0.6-1.3,1.3c0,0.7,0.6,1.3,1.3,1.3c0.7,0,1.3-0.6,1.3-1.3C23.3,21.5,22.8,20.9,22,20.9z M32.5,30.8
			c-0.3-0.7-1.1-0.9-1.7-0.6c-0.7,0.3-1.5,0.5-2.3,0.5c-0.8,0-1.6-0.2-2.4-0.5c-0.6-0.3-1.4,0-1.7,0.6c-0.3,0.7,0,1.4,0.6,1.7
			c1.1,0.5,2.2,0.8,3.5,0.8c1.2,0,2.3-0.3,3.4-0.7C32.5,32.3,32.8,31.5,32.5,30.8z M42,40l-3.5-3.2c4.3-3.2,6.9-8.3,6.9-13.7v-8.6
			C45.4,6.5,39,0,31.1,0h-5.2c-7.9,0-14.2,6.4-14.2,14.4V23c0,5.4,2.6,10.5,6.8,13.7L15,40C8.1,40.3,0,45.9,0,53.1v12.6
			C0,66.4,0.6,67,1.3,67h54.4c0.7,0,1.3-0.6,1.3-1.3V53.1C57,45.9,48.9,40.3,42,40z M39.9,41.6l-4.3,9.7l-5.3-2.7l6.2-10.1
			L39.9,41.6z M28.5,50.6l4,2l-1.1,3.1h-5.9l-1-3.1L28.5,50.6z M28.5,46.7L24,39.4c1.5,0.4,3,0.6,4.5,0.6c1.5,0,3-0.2,4.5-0.6
			L28.5,46.7z M14.3,14.4c0-6.5,5.2-11.8,11.6-11.8h5.2c6.4,0,11.7,5.3,11.7,11.8v1.1l-2.4-3.5c-0.2-0.3-0.6-0.5-1-0.6
			c-0.4,0-0.8,0.1-1,0.4c-2.6,2.7-5.7,3.9-9.9,3.9c-4.2,0-7.2-1.2-9.9-3.9c-0.3-0.3-0.7-0.4-1-0.4c-0.4,0-0.7,0.2-1,0.6l-2.3,3.4
			V14.4z M14.3,23v-3l3.6-5.3c2.9,2.5,6.3,3.6,10.6,3.6c4.3,0,7.7-1.2,10.6-3.6l3.7,5.4v3c0,7.8-6.3,14.4-14.3,14.4
			C20.6,37.4,14.3,30.9,14.3,23z M20.4,38.6l6.2,10.1l-5.3,2.7l-4.3-9.7L20.4,38.6z M21.6,64.4h-19V53.1c0-5.4,6.5-10,12.1-10.5
			l4.8,11c0.1,0.3,0.4,0.6,0.7,0.7c0.3,0.1,0.7,0.1,1-0.1l0.9-0.5l1,3.3L21.6,64.4z M24.2,64.4l1.4-6h5.7l1.4,6H24.2z M54.4,64.4
			H35.4l-1.6-7.3l1.1-3.3l0.8,0.4c0.3,0.2,0.7,0.2,1,0.1c0.3-0.1,0.6-0.4,0.7-0.7l4.8-11c5.7,0.4,12.1,5.1,12.1,10.5V64.4z
			 M45.3,58.4h-5.2c-0.7,0-1.3,0.6-1.3,1.3c0,0.7,0.6,1.3,1.3,1.3h5.2c0.7,0,1.3-0.6,1.3-1.3C46.6,58.9,46,58.4,45.3,58.4z
			 M49.1,59.7c0,0.7,0.6,1.3,1.3,1.3c0.7,0,1.3-0.6,1.3-1.3c0-0.7-0.6-1.3-1.3-1.3C49.7,58.4,49.1,58.9,49.1,59.7z"/>
	</g>
</g>
</svg>
