<?xml version="1.0" encoding="utf-8"?>
<!-- Generator: Adobe Illustrator 22.1.0, SVG Export Plug-In . SVG Version: 6.00 Build 0)  -->
<svg version="1.1" id="Layer_1" xmlns="http://www.w3.org/2000/svg" xmlns:xlink="http://www.w3.org/1999/xlink" x="0px" y="0px"
	 viewBox="0 0 46 69" enable-background="new 0 0 46 69" xml:space="preserve">
<g>
	<g>
		<path d="M41.1,31c-2.1,0-4,1.4-4.7,3.4c-0.5,0.2-0.9,0.4-1.2,0.8c-0.6,0.6-1,1.5-1,2.4c0,0,0,0.1,0,0.1v10.6
			c-1.3-0.8-1.7-1-7.3-3.4v-2.7c1.5-0.7,2.8-1.7,4-2.9c2.8-2.8,4.3-6.5,4.3-10.5v-2.5c0.8-0.8,1.3-1.8,1.3-2.9v-0.3
			c0.5-0.2,0.8-0.7,0.8-1.3v-4.4c0-1.3-1-2.4-2.3-2.4v-0.3C35,6.5,28.4,0,20.5,0c-4,0-7.8,1.7-10.6,4.6C9.5,5,9.5,5.6,9.9,6
			c0.4,0.4,1,0.4,1.4,0c0.4-0.5,0.9-0.9,1.4-1.3l1.2,6.6c0.1,0.5,0.6,0.9,1.2,0.8c0.5-0.1,0.9-0.6,0.8-1.2l-1.4-7.4
			C16.4,2.5,18.4,2,20.5,2c2.1,0,4.1,0.5,5.8,1.4l-1.4,7.4c-0.1,0.6,0.4,1.2,1,1.2c0.5,0,0.9-0.3,1-0.8l1.2-6.6
			c2.9,2.3,4.8,5.9,4.8,9.9v0.3h-3.2c-0.6,0-1,0.5-1,1c0,0.6,0.5,1,1,1h5.2c0.2,0,0.4,0.2,0.4,0.4V21H5.7v-3.8
			c0-0.2,0.2-0.4,0.4-0.4h5.2c0.6,0,1-0.5,1-1c0-0.6-0.5-1-1-1H8v-0.3c0-1.9,0.4-3.7,1.2-5.5c0.2-0.5,0-1.1-0.5-1.4
			c-0.5-0.2-1.1,0-1.3,0.5c-1,2-1.4,4.1-1.4,6.3v0.3c-1.3,0.1-2.3,1.1-2.3,2.4v4.4c0,0.5,0.3,1,0.8,1.3v0.3c0,1.1,0.5,2.2,1.3,2.9
			v2.5c0,5.9,3.4,10.9,8.4,13.3v2.7c-1.1,0.5-1.9,0.8-2.6,1.1c-1.2,0.5-1.9,0.8-2.4,1l-0.1,0c-0.2,0.1-0.4,0.2-0.6,0.3
			c-0.3,0.1-0.5,0.2-0.7,0.4c0,0,0,0,0,0c0,0-0.1,0-0.1,0C2.9,50.3,0,55.2,0,60.6v6.9C0,68.3,0.7,69,1.5,69H45c0.6,0,1-0.5,1-1V35.9
			C46,33.2,43.8,31,41.1,31z M41.1,33c3.2,0,4.1,4.5,1,5.6v-3.5c0-0.6-0.5-1-1-1h-2.3C39.3,33.4,40.1,33,41.1,33z M36.2,37.5
			c0-0.4,0.1-0.7,0.4-0.9c0.2-0.2,0.5-0.3,0.8-0.4c0.1,0,0.1,0,0.2,0h2.5v2.7h-2.5C36.8,38.8,36.2,38.2,36.2,37.5
			C36.2,37.5,36.2,37.5,36.2,37.5L36.2,37.5z M28,47.5l2.9,1.3c0.3,0.1,0.5,0.2,0.7,0.3l-4.2,7.3L23.6,54c0,0,0,0,0,0L22,53l4.7-5.6
			c0.1-0.1,0.2-0.3,0.2-0.4C27.3,47.2,27.7,47.3,28,47.5z M20.5,51.6L16,46.4v-3.5c1.4,0.4,2.9,0.7,4.4,0.7c1.5,0,3-0.2,4.4-0.7v2.6
			c0,0,0,0,0,0v0.9L20.5,51.6z M6.4,23.2V23h28.1v0.2c0,1.2-1,2.1-2.2,2c-3.9-0.4-7.9-0.6-11.9-0.6c-4,0-7.9,0.2-11.9,0.6
			C7.4,25.3,6.4,24.4,6.4,23.2z M7.7,28.7v-1.5c0.4,0.1,0.8,0.1,1.1,0c7.7-0.8,15.6-0.8,23.3,0c0.1,0,0.3,0,0.4,0
			c0.2,0,0.5,0,0.7-0.1v1.5c0,3.4-1.3,6.6-3.7,9.1c-1.1,1.1-2.5,2.1-3.9,2.7c-0.1,0-0.1,0-0.2,0.1c-1.5,0.7-3.2,1-5,1
			C13.4,41.5,7.7,35.8,7.7,28.7z M9.8,48.8l4.2-1.8c0,0.1,0.1,0.3,0.2,0.4l4.7,5.6l-5.4,3.3L9.3,49C9.5,49,9.6,48.9,9.8,48.8z
			 M15,67H2v-6.4c0-4.3,2.1-8.2,5.6-10.6l4.7,8.2c0.1,0.2,0.4,0.4,0.6,0.5c0.3,0.1,0.5,0,0.8-0.1l2.8-1.7L15,67z M17,67l1.8-11.5
			l1.7-1l1.7,1L23.9,67H17z M44,67h-3v-6.4c0-2.2-0.5-4.3-1.4-6.3c-0.2-0.5-0.8-0.7-1.3-0.5c-0.5,0.2-0.7,0.8-0.5,1.3
			c0.8,1.7,1.2,3.5,1.2,5.4V67H26l-1.6-10.1l2.8,1.7c0.5,0.3,1.1,0.1,1.4-0.4l4.7-8.2c0.8,0.5,1.5,1.2,2.2,1.9
			c0.2,0.2,0.5,0.3,0.7,0.3c0.2,0,0.5-0.1,0.7-0.3c0.4-0.4,0.4-1,0.1-1.4c-0.3-0.3-0.6-0.6-0.9-0.9v-9.2c0,0,0.6,0.3,1.3,0.3
			c2.7-0.2,4.5,0.5,6.4-1V67z M36.3,63.1h-7.4c-0.6,0-1,0.5-1,1c0,0.6,0.5,1,1,1h7.4c0.6,0,1-0.5,1-1C37.3,63.5,36.8,63.1,36.3,63.1
			z M24.6,15.8c0-2.3-1.9-4.2-4.2-4.2c-2.3,0-4.2,1.9-4.2,4.2c0,2.3,1.9,4.2,4.2,4.2C22.8,20,24.6,18.1,24.6,15.8z M18.3,15.8
			c0-1.2,1-2.1,2.1-2.1c1.2,0,2.1,1,2.1,2.1c0,1.2-1,2.1-2.1,2.1C19.3,18,18.3,17,18.3,15.8z"/>
	</g>
</g>
</svg>
