<?xml version="1.0" encoding="utf-8"?>
<!-- Generator: Adobe Illustrator 22.1.0, SVG Export Plug-In . SVG Version: 6.00 Build 0)  -->
<svg version="1.1" id="Layer_1" xmlns="http://www.w3.org/2000/svg" xmlns:xlink="http://www.w3.org/1999/xlink" x="0px" y="0px"
	 viewBox="0 0 18.7 20.9" enable-background="new 0 0 18.7 20.9" xml:space="preserve">
<path d="M14.8,2.8l1.3-2.3c0.1-0.1,0.1-0.2,0-0.3C16.1,0.1,15.9,0,15.8,0H9.3C9.2,0,9.1,0.1,9,0.2L8.7,1.1C3.8,1.5,0,5.5,0,10.4
	c0,3.6,2.1,6.9,5.3,8.4l-0.6,1.5c-0.1,0.2,0,0.3,0.1,0.4c0.1,0,0.1,0,0.2,0c0.1,0,0.2,0,0.3-0.1l1.2-1.4c0.9,0.3,1.9,0.5,2.9,0.5
	c5.2,0,9.3-4.2,9.3-9.3C18.7,7.4,17.2,4.6,14.8,2.8z M14.3,9.6c-0.1-0.1-0.2-0.2-0.3-0.2h-3l2.7-4.7c1.8,1.4,2.9,3.5,2.9,5.8
	c0,4-3.2,7.2-7.2,7.2c-0.5,0-0.9,0-1.4-0.1l6.3-7.6C14.4,9.8,14.4,9.7,14.3,9.6z M9.6,0.7h5.7l-5.1,8.9c-0.1,0.1-0.1,0.2,0,0.3
	c0.1,0.1,0.2,0.2,0.3,0.2h2.9l-7.2,8.6c0,0,0,0,0,0l2.8-7.4c0-0.1,0-0.2,0-0.3c-0.1-0.1-0.2-0.1-0.3-0.1H5.5L9.6,0.7z M4.7,11.3
	c0.1,0.1,0.2,0.1,0.3,0.1h3.1l-2.1,5.4c-2.4-1.2-3.9-3.7-3.9-6.4c0-1.7,0.6-3.4,1.8-4.7c1-1.2,2.4-2,3.9-2.3L4.7,11
	C4.7,11.1,4.7,11.2,4.7,11.3z M0.7,10.4C0.7,6,4,2.3,8.4,1.8L8.1,2.6C6.2,2.9,4.6,3.9,3.4,5.3c-1.2,1.4-1.9,3.3-1.9,5.2
	c0,3,1.7,5.7,4.4,7.1l-0.3,0.7C2.6,16.8,0.7,13.8,0.7,10.4z M9.3,19.1c-0.8,0-1.6-0.1-2.4-0.3l0.5-0.6c0.6,0.1,1.2,0.2,1.9,0.2
	c4.4,0,7.9-3.5,7.9-7.9c0-2.5-1.2-4.9-3.2-6.3l0.4-0.7c2.2,1.6,3.6,4.2,3.6,7C18,15.2,14.1,19.1,9.3,19.1z"/>
</svg>
