<?xml version="1.0" encoding="utf-8"?>
<!-- Generator: Adobe Illustrator 22.1.0, SVG Export Plug-In . SVG Version: 6.00 Build 0)  -->
<svg version="1.1" id="Layer_1" xmlns="http://www.w3.org/2000/svg" xmlns:xlink="http://www.w3.org/1999/xlink" x="0px" y="0px"
	 viewBox="0 0 32 21.5" enable-background="new 0 0 32 21.5" xml:space="preserve">
<g>
	<g>
		<path d="M31.5,19.9c-0.7,0-1,0.2-1.3,0.3c-0.3,0.1-0.4,0.2-0.9,0.2c-0.2,0-0.4,0-0.5-0.1l3.2-6.9c0.1-0.2,0.1-0.3,0-0.5
			c-0.1-0.1-0.3-0.2-0.4-0.2h-1.7V4.4c0-0.3-0.2-0.5-0.5-0.5H26c-0.3,0-0.5,0.2-0.5,0.5v8.3h-5c-0.1,0-0.3,0.1-0.4,0.2L18,14.9h-3.7
			v-4.8l7.3-5.9v3.5h-1.1c-0.3,0-0.5,0.2-0.5,0.5v2.2c0,0.3,0.2,0.5,0.5,0.5h3.3c0.3,0,0.5-0.2,0.5-0.5V8.3c0-0.3-0.2-0.5-0.5-0.5
			h-1.1V3.4L23,3.1c0.2-0.2,0.3-0.5,0.1-0.7l-0.9-1.3C22,0.9,21.7,0.9,21.5,1l-7.8,5.1h-3.2c-0.3,0-0.5,0.2-0.5,0.5v3.3
			c0,0.3,0.2,0.5,0.5,0.5h0.6v4.5H8.8V6.6c0-0.3-0.2-0.5-0.5-0.5H7.1V2.1h1.7c0.3,0,0.5-0.2,0.5-0.5c0-0.3-0.2-0.5-0.5-0.5H7.1V0.5
			C7.1,0.2,6.9,0,6.6,0S6.1,0.2,6.1,0.5v0.6H5.5C5.2,1.1,5,1.3,5,1.6c0,0.3,0.2,0.5,0.5,0.5h0.6v3.9H1.6c-0.3,0-0.5,0.2-0.5,0.5v3.3
			c0,0.3,0.2,0.5,0.5,0.5h1.1v2.8H0.5c-0.2,0-0.3,0.1-0.4,0.2C0,13.6,0,13.8,0,13.9l2,6.4c0,0-0.1,0-0.1-0.1
			c-0.3-0.1-0.7-0.3-1.3-0.3c-0.3,0-0.5,0.2-0.5,0.5C0,20.7,0.2,21,0.5,21C1,21,1.1,21,1.4,21.2c0.3,0.1,0.7,0.3,1.3,0.3
			c0,0,0,0,0,0s0,0,0,0c0.7,0,1-0.2,1.3-0.3C4.3,21,4.5,21,4.9,21c0.4,0,0.6,0.1,0.9,0.2c0.3,0.1,0.7,0.3,1.3,0.3
			c0.7,0,1-0.2,1.3-0.3C8.8,21,8.9,21,9.4,21c0.4,0,0.6,0.1,0.9,0.2c0.3,0.1,0.7,0.3,1.3,0.3s1-0.2,1.3-0.3c0.3-0.1,0.4-0.2,0.9-0.2
			s0.6,0.1,0.9,0.2c0.3,0.1,0.7,0.3,1.3,0.3c0.7,0,1-0.2,1.3-0.3c0.3-0.1,0.4-0.2,0.9-0.2c0.4,0,0.6,0.1,0.9,0.2
			c0.3,0.1,0.7,0.3,1.3,0.3c0.7,0,1-0.2,1.3-0.3C22,21,22.2,21,22.7,21c0.4,0,0.6,0.1,0.9,0.2c0.3,0.1,0.7,0.3,1.3,0.3
			c0.7,0,1-0.2,1.3-0.3c0.3-0.1,0.4-0.2,0.9-0.2c0.4,0,0.6,0.1,0.9,0.2c0.3,0.1,0.7,0.3,1.3,0.3c0.7,0,1-0.2,1.3-0.3
			c0.3-0.1,0.4-0.2,0.9-0.2c0.3,0,0.5-0.2,0.5-0.5C32,20.1,31.8,19.9,31.5,19.9z M23.2,8.8V10H21V8.8H23.2z M14.3,6.9l7.3-4.7
			L22,2.6l-7.6,6.2V6.9z M26.5,4.9h2.3v1.2h-2.3V4.9z M26.5,7.1h2.3v1.2h-2.3V7.1z M26.5,9.3h2.3v1.2h-2.3V9.3z M26.5,11.5h2.3v1.2
			h-2.3V11.5z M11,9.4V7.1h2.3v2.3H11z M13.3,10.4v4.5h-1.2v-4.5H13.3z M2.1,9.4V7.1h5.6v2.3H2.1z M7.7,10.4v4.5H6.8l-1.5-1.5
			c-0.1-0.1-0.2-0.2-0.4-0.2H3.8v-2.8H7.7z M27.8,20c-0.2-0.1-0.4-0.1-0.7-0.1c-0.7,0-1,0.2-1.3,0.3c-0.3,0.1-0.4,0.2-0.9,0.2
			c-0.4,0-0.6-0.1-0.9-0.2c-0.3-0.1-0.7-0.3-1.3-0.3c-0.7,0-1,0.2-1.3,0.3c-0.3,0.1-0.4,0.2-0.9,0.2c-0.4,0-0.6-0.1-0.9-0.2
			c-0.3-0.1-0.7-0.3-1.3-0.3c-0.7,0-1,0.2-1.3,0.3c-0.3,0.1-0.4,0.2-0.9,0.2c-0.4,0-0.6-0.1-0.9-0.2c-0.3-0.1-0.7-0.3-1.3-0.3
			s-1,0.2-1.3,0.3c-0.3,0.1-0.4,0.2-0.9,0.2c-0.4,0-0.6-0.1-0.9-0.2c-0.3-0.1-0.7-0.3-1.3-0.3c-0.7,0-1,0.2-1.3,0.3
			c-0.3,0.1-0.4,0.2-0.9,0.2c-0.4,0-0.6-0.1-0.9-0.2c-0.3-0.1-0.7-0.3-1.3-0.3c-0.7,0-1,0.2-1.3,0.3c-0.2,0.1-0.3,0.2-0.5,0.2
			l-1.9-6.1h3.5l1.5,1.5C6.3,15.9,6.5,16,6.6,16h11.6c0.1,0,0.3-0.1,0.4-0.2l2.1-2.1h10L27.8,20z M6.6,7.7H6.1
			C5.8,7.7,5.5,8,5.5,8.3c0,0.3,0.2,0.5,0.5,0.5h0.6c0.3,0,0.5-0.2,0.5-0.5C7.1,8,6.9,7.7,6.6,7.7z M3.8,7.7H3.3
			C3,7.7,2.8,8,2.8,8.3c0,0.3,0.2,0.5,0.5,0.5h0.6c0.3,0,0.5-0.2,0.5-0.5C4.4,8,4.1,7.7,3.8,7.7z M8.3,17.1H7.7
			c-0.3,0-0.5,0.2-0.5,0.5c0,0.3,0.2,0.5,0.5,0.5h0.6c0.3,0,0.5-0.2,0.5-0.5C8.8,17.4,8.6,17.1,8.3,17.1z M10.5,17.1H9.9
			c-0.3,0-0.5,0.2-0.5,0.5c0,0.3,0.2,0.5,0.5,0.5h0.6c0.3,0,0.5-0.2,0.5-0.5C11,17.4,10.8,17.1,10.5,17.1z M12.7,17.1h-0.6
			c-0.3,0-0.5,0.2-0.5,0.5c0,0.3,0.2,0.5,0.5,0.5h0.6c0.3,0,0.5-0.2,0.5-0.5C13.2,17.4,13,17.1,12.7,17.1z M14.9,17.1h-0.6
			c-0.3,0-0.5,0.2-0.5,0.5c0,0.3,0.2,0.5,0.5,0.5h0.6c0.3,0,0.5-0.2,0.5-0.5C15.4,17.4,15.2,17.1,14.9,17.1z M17.1,17.1h-0.6
			c-0.3,0-0.5,0.2-0.5,0.5c0,0.3,0.2,0.5,0.5,0.5h0.6c0.3,0,0.5-0.2,0.5-0.5C17.6,17.4,17.4,17.1,17.1,17.1z"/>
	</g>
</g>
</svg>
