<?xml version="1.0" encoding="utf-8"?>
<!-- Generator: Adobe Illustrator 22.1.0, SVG Export Plug-In . SVG Version: 6.00 Build 0)  -->
<svg version="1.1" id="Layer_1" xmlns="http://www.w3.org/2000/svg" xmlns:xlink="http://www.w3.org/1999/xlink" x="0px" y="0px"
	 viewBox="0 0 23.4 21.4" enable-background="new 0 0 23.4 21.4" xml:space="preserve">
<g>
	<g>
		<path d="M23,20.6h-0.8v-2c0-0.2-0.2-0.4-0.4-0.4h-0.4v-4.6c0.5-0.2,0.8-0.6,0.8-1.1c0-0.5-0.3-1-0.8-1.1V7.2L21.9,7
			c0.2-0.1,0.2-0.2,0.2-0.4l-0.4-4.2c0-0.1,0-0.1-0.1-0.2l-1.3-2.1C20.3,0,20.1,0,19.9,0L17.6,1c-0.2,0.1-0.3,0.3-0.2,0.4l0.3,1.3
			l-5.2,2.2c-0.2-0.1-0.5-0.2-0.8-0.2c-0.7,0-1.3,0.4-1.5,1l-0.1,0.2L1.8,9.3c-0.1,0-0.2,0.1-0.2,0.2c0,0.1,0,0.2,0,0.3l0.4,1
			c0,0,0,0.1,0,0.1v6.9H0.8c-0.2,0-0.4,0.2-0.4,0.4v2.5h0C0.2,20.6,0,20.8,0,21c0,0.2,0.2,0.4,0.4,0.4H23c0.2,0,0.4-0.2,0.4-0.4
			C23.4,20.8,23.3,20.6,23,20.6z M21.4,12.5c0,0.2-0.2,0.4-0.4,0.4c-0.2,0-0.4-0.2-0.4-0.4c0-0.2,0.2-0.4,0.4-0.4
			C21.3,12.1,21.4,12.2,21.4,12.5z M19.9,0.9L21,2.6l0.3,2.9l-1.1-2.6c0,0,0,0,0,0c0,0,0,0,0,0L19.4,1L19.9,0.9z M20.6,5.8l-1.1-1.3
			l0.1,0c0.1-0.1,0.3-0.1,0.4-0.2L20.6,5.8z M18.7,1.3l0.4,0.9c-0.1,0-0.3,0-0.4,0.1l-0.2,0.1l-0.2-0.8L18.7,1.3z M18.9,3
			c0.1,0,0.2,0,0.3,0c0.1,0,0.2,0.1,0.2,0.2l0,0c0,0.1,0,0.2,0,0.3c0,0.1-0.1,0.2-0.2,0.2l-5.8,2.4l-0.2-0.6c0-0.1-0.1-0.2-0.1-0.2
			L18.9,3z M9.8,6.8L9.4,7.9l-6.6,2.7L2.5,9.8L9.8,6.8z M3.6,20.6H1.2v-2.1h2.5V20.6z M4.4,20.6v-2.5c0-0.2-0.2-0.4-0.4-0.4H2.8
			v-6.3L9,8.9L4.6,20.6H4.4z M9.8,15.7l1.9-2.1l1.9,2.1H9.8z M13.2,16.5l-1.5,0.9l-1.5-0.9H13.2z M12.2,13.1l0.5-0.6l1,2.2
			L12.2,13.1z M11.7,12.6L11,11.8l0.7-1.6l0.7,1.6L11.7,12.6z M11.2,13.1l-1.5,1.7l1-2.2L11.2,13.1z M11,17.8L7.4,20l1.5-3.4
			L11,17.8z M7.9,20.6l3.8-2.3l3.8,2.3H7.9z M12.4,17.8l2.1-1.3L16,20L12.4,17.8z M17.1,20.6l-5-11.5C12,9,11.9,8.9,11.7,8.9
			c-0.2,0-0.3,0.1-0.3,0.2l-5,11.5H5.4l5.6-14.7c0.2-0.4,0.5-0.5,0.8-0.5s0.6,0.1,0.8,0.5L18,20.6H17.1z M19.8,18.6v2h-1L13.7,6.9
			l5.1-2.1l1.9,2.3v4.2c-0.5,0.2-0.8,0.6-0.8,1.1c0,0.5,0.3,1,0.8,1.1v4.6h-0.4C20,18.2,19.8,18.3,19.8,18.6z M21.4,20.6h-0.9v-1.7
			h0.9V20.6z M11.7,5.9c-0.3,0-0.5,0.2-0.5,0.5s0.2,0.5,0.5,0.5c0.3,0,0.5-0.2,0.5-0.5S12,5.9,11.7,5.9z"/>
	</g>
</g>
</svg>
