<?xml version="1.0" encoding="utf-8"?>
<!-- Generator: Adobe Illustrator 22.1.0, SVG Export Plug-In . SVG Version: 6.00 Build 0)  -->
<svg version="1.1" id="Layer_1" xmlns="http://www.w3.org/2000/svg" xmlns:xlink="http://www.w3.org/1999/xlink" x="0px" y="0px"
	 viewBox="0 0 28.4 16.8" enable-background="new 0 0 28.4 16.8" xml:space="preserve">
<g>
	<g>
		<path d="M6.3,9.4c-1.3,0-2.4,1.1-2.4,2.4c0,1.3,1.1,2.4,2.4,2.4s2.4-1.1,2.4-2.4C8.8,10.5,7.7,9.4,6.3,9.4z M6.3,13.4
			c-0.8,0-1.5-0.7-1.5-1.5c0-0.8,0.7-1.5,1.5-1.5c0.8,0,1.5,0.7,1.5,1.5C7.8,12.7,7.2,13.4,6.3,13.4z M22.1,9.4
			c-1.3,0-2.4,1.1-2.4,2.4c0,1.3,1.1,2.4,2.4,2.4s2.4-1.1,2.4-2.4C24.5,10.5,23.4,9.4,22.1,9.4z M22.1,13.4c-0.8,0-1.5-0.7-1.5-1.5
			c0-0.8,0.7-1.5,1.5-1.5s1.5,0.7,1.5,1.5C23.6,12.7,22.9,13.4,22.1,13.4z M28,8.9C28,8.9,27.9,8.9,28,8.9l0-1.7
			c0-0.7-0.3-1.3-0.9-1.6l-0.7-0.5l-1-2C25,2.4,24.4,2,23.6,2h-5c-0.3,0-0.5,0.2-0.5,0.5v2h-1V1c0,0,0,0,0,0h8.4
			c0.3,0,0.5-0.2,0.5-0.5C26,0.2,25.8,0,25.5,0h-8.4c-0.5,0-1,0.4-1,1v0H0.5C0.3,1,0.1,1.1,0,1.3C0,1.5,0,1.7,0.2,1.8l6.5,5.1
			c-0.1,0-0.2,0-0.3,0c-2.7,0-4.9,2.2-4.9,4.9c0,2.7,2.2,4.9,4.9,4.9c2.2,0,4-1.5,4.7-3.5h0.8v0c0,0.5,0.4,1,1,1h2.9
			c0.5,0,1-0.4,1-1v0h0.8c0.6,2,2.5,3.5,4.7,3.5c2.7,0,4.9-2.2,4.9-4.9c0,0,0,0,0,0h0c0.8,0,1.4-0.7,1.4-1.5v-1
			C28.4,9.1,28.2,8.9,28,8.9z M25.3,5h-3.9c-0.2,0-0.3-0.1-0.3-0.3c0-0.2,0.1-0.3,0.3-0.3H25L25.3,5z M19.1,2.9h4.5
			c0.4,0,0.7,0.2,0.9,0.6h-3.2c-0.7,0-1.2,0.5-1.2,1.2c0,0.7,0.5,1.2,1.2,1.2h4.5l0.7,0.5C26.8,6.5,27,6.9,27,7.2v1.7h-1
			c0,0,0,0,0,0c-0.9-1.2-2.3-2-3.9-2c-1.1,0-2.2,0.4-3,1V2.9z M1.8,1.9h14.4v8h-3.7c-0.4,0-0.7-0.1-1-0.3L1.8,1.9z M6.3,15.8
			c-2.2,0-4-1.8-4-4c0-2.2,1.8-4,4-4s4,1.8,4,4C10.3,14.1,8.5,15.8,6.3,15.8z M15.7,13.3C15.7,13.4,15.7,13.4,15.7,13.3l-3,0
			c0,0,0,0,0,0v-1c0,0,0,0,0,0h2.9c0,0,0,0,0,0V13.3z M17.2,12.4h-0.6v0c0-0.5-0.4-1-1-1h-2.9c-0.5,0-1,0.4-1,1v0h-0.6
			c0-0.2,0-0.3,0-0.5c0-0.5-0.1-1-0.2-1.5c0.4,0.3,0.9,0.5,1.5,0.5h4.8c-0.1,0.3-0.1,0.7-0.1,1C17.2,12,17.2,12.2,17.2,12.4z
			 M17.1,9.9V5.4h1v3.5c0,0,0,0,0,0c-0.2,0.3-0.4,0.6-0.6,1H17.1z M22.1,15.8c-2.2,0-4-1.8-4-4c0-2.2,1.8-4,4-4s4,1.8,4,4
			C26,14.1,24.3,15.8,22.1,15.8z M27.5,10.4c0,0.3-0.2,0.5-0.5,0.5h-0.1c-0.1-0.4-0.2-0.7-0.3-1.1h1c0,0,0,0,0,0V10.4z M14.7,8.9
			c0.3,0,0.5-0.2,0.5-0.5v-5c0-0.3-0.2-0.5-0.5-0.5s-0.5,0.2-0.5,0.5v5C14.2,8.6,14.4,8.9,14.7,8.9z M12.7,8.9
			c0.3,0,0.5-0.2,0.5-0.5v-5C13.2,3.2,13,3,12.7,3s-0.5,0.2-0.5,0.5v5C12.3,8.6,12.5,8.9,12.7,8.9z M10.8,3c-0.3,0-0.5,0.2-0.5,0.5
			v3.5c0,0.3,0.2,0.5,0.5,0.5s0.5-0.2,0.5-0.5V3.4C11.2,3.2,11,3,10.8,3z M8.8,3C8.5,3,8.3,3.2,8.3,3.4v2c0,0.3,0.2,0.5,0.5,0.5
			s0.5-0.2,0.5-0.5v-2C9.3,3.2,9,3,8.8,3z M6.8,3C6.6,3,6.4,3.2,6.4,3.4v0.5c0,0.3,0.2,0.5,0.5,0.5s0.5-0.2,0.5-0.5V3.4
			C7.3,3.2,7.1,3,6.8,3z"/>
	</g>
</g>
</svg>
