<?xml version="1.0" encoding="utf-8"?>
<!-- Generator: Adobe Illustrator 22.1.0, SVG Export Plug-In . SVG Version: 6.00 Build 0)  -->
<svg version="1.1" id="Layer_1" xmlns="http://www.w3.org/2000/svg" xmlns:xlink="http://www.w3.org/1999/xlink" x="0px" y="0px"
	 viewBox="0 0 27 21.4" enable-background="new 0 0 27 21.4" xml:space="preserve">
<g>
	<g>
		<path d="M4.2,15.8c0.2,0,0.4-0.2,0.4-0.4v-0.5c0-0.2-0.2-0.4-0.4-0.4c-0.2,0-0.4,0.2-0.4,0.4v0.5C3.7,15.6,3.9,15.8,4.2,15.8z
			 M4.2,17.7c0.2,0,0.4-0.2,0.4-0.4v-0.5c0-0.2-0.2-0.4-0.4-0.4c-0.2,0-0.4,0.2-0.4,0.4v0.5C3.7,17.5,3.9,17.7,4.2,17.7z M4.2,19.5
			c0.2,0,0.4-0.2,0.4-0.4v-0.5c0-0.2-0.2-0.4-0.4-0.4c-0.2,0-0.4,0.2-0.4,0.4v0.5C3.7,19.3,3.9,19.5,4.2,19.5z M6,15.8
			c0.2,0,0.4-0.2,0.4-0.4v-0.5c0-0.2-0.2-0.4-0.4-0.4c-0.2,0-0.4,0.2-0.4,0.4v0.5C5.6,15.6,5.8,15.8,6,15.8z M6,17.7
			c0.2,0,0.4-0.2,0.4-0.4v-0.5c0-0.2-0.2-0.4-0.4-0.4c-0.2,0-0.4,0.2-0.4,0.4v0.5C5.6,17.5,5.8,17.7,6,17.7z M6,19.5
			c0.2,0,0.4-0.2,0.4-0.4v-0.5c0-0.2-0.2-0.4-0.4-0.4c-0.2,0-0.4,0.2-0.4,0.4v0.5C5.6,19.3,5.8,19.5,6,19.5z M9.8,15.8
			c0.2,0,0.4-0.2,0.4-0.4v-0.5c0-0.2-0.2-0.4-0.4-0.4s-0.4,0.2-0.4,0.4v0.5C9.3,15.6,9.5,15.8,9.8,15.8z M9.8,17.7
			c0.2,0,0.4-0.2,0.4-0.4v-0.5c0-0.2-0.2-0.4-0.4-0.4s-0.4,0.2-0.4,0.4v0.5C9.3,17.5,9.5,17.7,9.8,17.7z M9.8,19.5
			c0.2,0,0.4-0.2,0.4-0.4v-0.5c0-0.2-0.2-0.4-0.4-0.4s-0.4,0.2-0.4,0.4v0.5C9.3,19.3,9.5,19.5,9.8,19.5z M11.6,15.8
			c0.2,0,0.4-0.2,0.4-0.4v-0.5c0-0.2-0.2-0.4-0.4-0.4s-0.4,0.2-0.4,0.4v0.5C11.2,15.6,11.4,15.8,11.6,15.8z M11.6,17.7
			c0.2,0,0.4-0.2,0.4-0.4v-0.5c0-0.2-0.2-0.4-0.4-0.4s-0.4,0.2-0.4,0.4v0.5C11.2,17.5,11.4,17.7,11.6,17.7z M11.6,19.5
			c0.2,0,0.4-0.2,0.4-0.4v-0.5c0-0.2-0.2-0.4-0.4-0.4s-0.4,0.2-0.4,0.4v0.5C11.2,19.3,11.4,19.5,11.6,19.5z M15.4,15.8
			c0.2,0,0.4-0.2,0.4-0.4v-0.5c0-0.2-0.2-0.4-0.4-0.4s-0.4,0.2-0.4,0.4v0.5C14.9,15.6,15.1,15.8,15.4,15.8z M15.4,17.7
			c0.2,0,0.4-0.2,0.4-0.4v-0.5c0-0.2-0.2-0.4-0.4-0.4s-0.4,0.2-0.4,0.4v0.5C14.9,17.5,15.1,17.7,15.4,17.7z M15.4,19.5
			c0.2,0,0.4-0.2,0.4-0.4v-0.5c0-0.2-0.2-0.4-0.4-0.4s-0.4,0.2-0.4,0.4v0.5C14.9,19.3,15.1,19.5,15.4,19.5z M17.2,15.8
			c0.2,0,0.4-0.2,0.4-0.4v-0.5c0-0.2-0.2-0.4-0.4-0.4c-0.2,0-0.4,0.2-0.4,0.4v0.5C16.8,15.6,17,15.8,17.2,15.8z M17.2,17.7
			c0.2,0,0.4-0.2,0.4-0.4v-0.5c0-0.2-0.2-0.4-0.4-0.4c-0.2,0-0.4,0.2-0.4,0.4v0.5C16.8,17.5,17,17.7,17.2,17.7z M17.2,19.5
			c0.2,0,0.4-0.2,0.4-0.4v-0.5c0-0.2-0.2-0.4-0.4-0.4c-0.2,0-0.4,0.2-0.4,0.4v0.5C16.8,19.3,17,19.5,17.2,19.5z M21,15.8
			c0.2,0,0.4-0.2,0.4-0.4v-0.5c0-0.2-0.2-0.4-0.4-0.4c-0.2,0-0.4,0.2-0.4,0.4v0.5C20.5,15.6,20.7,15.8,21,15.8z M21,17.7
			c0.2,0,0.4-0.2,0.4-0.4v-0.5c0-0.2-0.2-0.4-0.4-0.4c-0.2,0-0.4,0.2-0.4,0.4v0.5C20.5,17.5,20.7,17.7,21,17.7z M21,19.5
			c0.2,0,0.4-0.2,0.4-0.4v-0.5c0-0.2-0.2-0.4-0.4-0.4c-0.2,0-0.4,0.2-0.4,0.4v0.5C20.5,19.3,20.7,19.5,21,19.5z M22.8,15.8
			c0.2,0,0.4-0.2,0.4-0.4v-0.5c0-0.2-0.2-0.4-0.4-0.4s-0.4,0.2-0.4,0.4v0.5C22.4,15.6,22.6,15.8,22.8,15.8z M22.8,17.7
			c0.2,0,0.4-0.2,0.4-0.4v-0.5c0-0.2-0.2-0.4-0.4-0.4s-0.4,0.2-0.4,0.4v0.5C22.4,17.5,22.6,17.7,22.8,17.7z M22.8,19.5
			c0.2,0,0.4-0.2,0.4-0.4v-0.5c0-0.2-0.2-0.4-0.4-0.4s-0.4,0.2-0.4,0.4v0.5C22.4,19.3,22.6,19.5,22.8,19.5z M26.6,20.5h-1.4v-9.4
			c0-0.1-0.1-0.3-0.2-0.4c-0.1-0.1-0.3-0.1-0.4-0.1L20.9,12L20.5,0.9h0c0.2,0,0.4-0.2,0.4-0.4S20.7,0,20.5,0h-2.8
			c-0.2,0-0.4,0.2-0.4,0.4s0.2,0.4,0.4,0.4h0l-0.4,10.4L15.3,12L14.9,0.9h0c0.2,0,0.4-0.2,0.4-0.4S15.1,0,14.9,0h-2.8
			c-0.2,0-0.4,0.2-0.4,0.4s0.2,0.4,0.4,0.4h0l-0.4,10.4L9.7,12L9.3,0.9h0c0.2,0,0.4-0.2,0.4-0.4S9.5,0,9.3,0H6.5
			C6.3,0,6.1,0.2,6.1,0.4s0.2,0.4,0.4,0.4h0L6.1,11.3l-4,1.3C2,12.7,1.9,12.8,1.9,13v7.5H0.4C0.2,20.5,0,20.7,0,21
			c0,0.2,0.2,0.4,0.4,0.4h26.1c0.2,0,0.4-0.2,0.4-0.4C27,20.7,26.8,20.5,26.6,20.5z M18.6,0.9h1l0.1,1.5h-1.1L18.6,0.9z M18.5,3.2
			h1.2l0.1,1.5h-1.3L18.5,3.2z M18.4,5.5h1.4L19.8,7h-1.5L18.4,5.5z M18.3,7.9h1.5l0.1,1.5h-1.6L18.3,7.9z M13,0.9h1l0.1,1.5h-1.1
			L13,0.9z M12.9,3.2h1.2l0.1,1.5h-1.3L12.9,3.2z M12.8,5.5h1.4L14.2,7h-1.5L12.8,5.5z M12.7,7.9h1.5l0.1,1.5h-1.6L12.7,7.9z
			 M7.4,0.9h1l0.1,1.5H7.3L7.4,0.9z M7.3,3.2h1.2l0.1,1.5H7.3L7.3,3.2z M7.2,5.5h1.4L8.6,7H7.2L7.2,5.5z M7.1,7.9h1.5l0.1,1.5H7.1
			L7.1,7.9z M7.5,20.5H2.7v-7.2l4.7-1.6V20.5z M7.8,10.8L7,11l0-0.8h1.7l0.1,2.1l-0.5,0.2v-1.3c0-0.1-0.1-0.3-0.2-0.4
			C8,10.7,7.9,10.7,7.8,10.8z M13.1,20.5H8.3v-7.2l4.7-1.6V20.5z M13.8,10.8c-0.1-0.1-0.3-0.1-0.4-0.1L12.6,11l0-0.8h1.7l0.1,2.1
			l-0.5,0.2v-1.3C13.9,11,13.9,10.9,13.8,10.8z M18.7,20.5h-4.7v-7.2l4.7-1.6V20.5z M19,10.8L18.2,11l0-0.8h1.7l0.1,2.1l-0.5,0.2
			v-1.3c0-0.1-0.1-0.3-0.2-0.4C19.2,10.7,19.1,10.7,19,10.8z M24.3,20.5h-4.7v-7.2l4.7-1.6V20.5z"/>
	</g>
</g>
</svg>
