<?xml version="1.0" encoding="utf-8"?>
<!-- Generator: Adobe Illustrator 22.1.0, SVG Export Plug-In . SVG Version: 6.00 Build 0)  -->
<svg version="1.1" id="Layer_1" xmlns="http://www.w3.org/2000/svg" xmlns:xlink="http://www.w3.org/1999/xlink" x="0px" y="0px"
	 viewBox="0 0 27.2 22" enable-background="new 0 0 27.2 22" xml:space="preserve">
<g>
	<g>
		<path d="M26.8,21.2h-0.5V7h0c0.2,0,0.4-0.2,0.4-0.4c0-0.2-0.2-0.4-0.4-0.4h-2.6l1-0.6c0.2-0.1,0.3-0.4,0.2-0.6
			c-0.1-0.2-0.4-0.3-0.6-0.2l-2.2,1.3h-1.6l1-0.6c0.2-0.1,0.3-0.4,0.2-0.6c-0.1-0.2-0.4-0.3-0.6-0.2l-2.2,1.3h-1.6l1-0.6
			c0.2-0.1,0.3-0.4,0.2-0.6c-0.1-0.2-0.4-0.3-0.6-0.2l-2.2,1.3h-1.6l1-0.6C15,5.4,15,5.1,14.9,4.9c-0.1-0.2-0.4-0.3-0.6-0.2
			l-2.2,1.3h-1.8c-0.2,0-0.4,0.2-0.4,0.4c0,0.2,0.2,0.4,0.4,0.4h0v2.9h-2L7.9,0.4C7.9,0.2,7.7,0,7.5,0H4.7C4.4,0,4.2,0.2,4.2,0.4
			L3.8,9.9H0.9c-0.2,0-0.4,0.2-0.4,0.4c0,0.2,0.2,0.4,0.4,0.4h0v10.4H0.4c-0.2,0-0.4,0.2-0.4,0.4C0,21.8,0.2,22,0.4,22h26.3
			c0.2,0,0.4-0.2,0.4-0.4C27.2,21.4,27,21.2,26.8,21.2z M5.1,0.9h2l0,1H5L5.1,0.9z M5,2.8h2.2l0,1H5L5,2.8z M4.9,4.6h2.3l0.2,5.2
			H4.7L4.9,4.6z M8,21.2H4.2v-1H8V21.2z M8,19.3H4.2v-1H8V19.3z M8,17.4H4.2v-1H8V17.4z M10.3,21.2H8.9v-4.8h0
			c0.2,0,0.4-0.2,0.4-0.4c0-0.2-0.2-0.4-0.4-0.4H3.3c-0.2,0-0.4,0.2-0.4,0.4c0,0.2,0.2,0.4,0.4,0.4h0v4.8H1.8V10.8h8.5V21.2z
			 M25.4,19.3h-1.9v-1.9h1.9V19.3z M25.4,16.5h-1.9v-1.9h1.9V16.5z M25.4,13.6h-1.9v-1.9h1.9V13.6z M25.4,10.8h-1.9V8.9h1.9V10.8z
			 M25.4,8h-8c-0.2,0-0.4,0.2-0.4,0.4v11.3c0,0.2,0.2,0.4,0.4,0.4h8v1H11.2V7h14.2V8z M20.6,16.5v-1.9h1.9v1.9H20.6z M22.6,17.3v1.9
			h-1.9v-1.9H22.6z M20.6,13.6v-1.9h1.9v1.9H20.6z M20.6,10.8V8.9h1.9v1.9H20.6z M17.8,16.5v-1.9h1.9v1.9H17.8z M19.7,17.3v1.9h-1.9
			v-1.9H19.7z M17.8,13.6v-1.9h1.9v1.9H17.8z M17.8,10.8V8.9h1.9v1.9H17.8z M3.3,14.5h1.9c0.2,0,0.4-0.2,0.4-0.4
			c0-0.2-0.2-0.4-0.4-0.4H3.3c-0.2,0-0.4,0.2-0.4,0.4C2.8,14.3,3,14.5,3.3,14.5z M7,14.5h1.9c0.2,0,0.4-0.2,0.4-0.4
			c0-0.2-0.2-0.4-0.4-0.4H7c-0.2,0-0.4,0.2-0.4,0.4C6.6,14.3,6.8,14.5,7,14.5z M3.3,12.6h1.9c0.2,0,0.4-0.2,0.4-0.4
			c0-0.2-0.2-0.4-0.4-0.4H3.3c-0.2,0-0.4,0.2-0.4,0.4C2.8,12.4,3,12.6,3.3,12.6z M7,12.6h1.9c0.2,0,0.4-0.2,0.4-0.4
			c0-0.2-0.2-0.4-0.4-0.4H7c-0.2,0-0.4,0.2-0.4,0.4C6.6,12.4,6.8,12.6,7,12.6z"/>
	</g>
</g>
</svg>
